<?xml version="1.0" encoding="UTF-8"?>
<svg id="Lag_1" data-name="Lag 1" xmlns="http://www.w3.org/2000/svg" viewBox="0 0 389.94 156.48">
  <defs>
    <style>
      .cls-1 {
        fill: #050506;
      }

      .cls-1, .cls-2, .cls-3, .cls-4, .cls-5, .cls-6, .cls-7, .cls-8, .cls-9, .cls-10, .cls-11, .cls-12, .cls-13 {
        stroke-width: 0px;
      }

      .cls-2 {
        fill: #ce635d;
      }

      .cls-3 {
        fill: #040404;
      }

      .cls-4 {
        fill: #edeeed;
      }

      .cls-5 {
        fill: #5599ca;
      }

      .cls-6 {
        fill: #fff;
      }

      .cls-7 {
        fill: #f4aab2;
      }

      .cls-8 {
        fill: #0c0c0c;
      }

      .cls-9 {
        fill: #1e1e1c;
      }

      .cls-10 {
        fill: #070708;
      }

      .cls-11 {
        fill: #050606;
      }

      .cls-12 {
        fill: #444;
      }

      .cls-13 {
        fill: #6abc8b;
      }
    </style>
  </defs>
  <g>
    <g>
      <g>
        <path class="cls-7" d="m258.11,120.45c-12.76-3.37-27.06-5.58-39.68-8.92,2.08-13.13,11.41-49.51,16.49-62.14,2.12-5.27,5.6-8.16,10.96-9.22,5.42-1.07,10.72-.97,15.81,1.44,4.88,2.31,7.54,6.21,7.36,11.67-.15,4.61.92,10.23.49,14.83m-27.09,1.09"/>
        <path class="cls-11" d="m248.95,148.55c-.05-5.16,0-10.31,0-15.47,0-4.22,0-8.44,0-12.76-2.41-.58-4.72-1.14-7.04-1.69-4.35-1.02-8.71-1.98-13.04-3.05-1.02-.25-1.79-.15-2.42.68-1.97,2.57-4.09,5.05-5.84,7.76-3.73,5.79-7.27,11.71-10.88,17.58-1.4,2.28-1.41,2.33-3.96,1.4-2.2-.81-4.36-1.77-6.54-2.64-.93-.37-1.41-1.02-.94-1.97.46-.93,1.27-.73,2.07-.38,2.23.96,4.46,1.88,6.68,2.82,5.92-8.7,10.46-18.13,17.18-26.24-1.34-.36-2.71-.68-4.05-1.08-2.3-.67-3.56-2.87-2.79-5.04,1.83-5.13,2.7-10.48,3.64-15.82.45-2.57,1.07-5.11,1.53-7.67.07-.38-.17-1.03-.47-1.23-8.19-5.33-15.94-11.25-23.3-17.69-.4-.35-1.05-.51-1.6-.57-1.07-.12-2.15-.07-3.23-.16-.76-.07-1.29-.5-1.2-1.35.08-.79.54-1.21,1.37-1.18.52.02,1.03,0,1.71,0-.54-.77-1.02-1.44-1.5-2.11-.52-.73-.57-1.44.2-1.99.74-.53,1.36-.21,1.86.44.65.85,1.27,1.73,1.96,2.67.42-.55.76-1,1.1-1.44.52-.67,1.2-.72,1.84-.27.55.39.64,1.2.26,1.76-.42.63-.91,1.21-1.41,1.88,7.24,6.46,14.93,12.32,23.22,17.7.39-2.25.75-4.4,1.13-6.54,1.58-9.02,4.5-17.62,7.96-26.06,1.02-2.49,1.93-5.04,3.85-7.01,2.75-2.83,6.36-3.85,10.06-4.65.67-.14,2.03-.33,2.82-.39,2.04-.14,2.76-.12,4.78.04.92.07,1.97.23,2.76.35,10.06,1.58,15.72,8.64,14.82,18.56-.86,9.54-1.61,19.09-3.51,28.86.43-.47.66-.67.83-.91,4.98-6.95,9.29-14.29,12.9-22.05.2-.42.16-1.08,0-1.53-.48-1.31-.65-1.54-1.18-2.83-.32-.78-.47-1.92.46-2.28.84-.32,1.57.41,1.9,1.31.36.96.36.79.82,1.86.79-.88,1.13-.95,1.84-1.75.6-.67,1.23-1.18,2.02-.55.66.52.57,1.45-.19,2.28-.57.62-.72.62-1.51,1.5,1.46,0,1.65-.09,2.71.01l.6.12c1.47.49,1.28,2.6-.01,2.51,0,0-.55-.01-.56-.01-1.39-.12-2.04-.16-3.43-.12-.44.01-.96.37-1.15.77-4.53,9.51-10.01,18.43-16.45,26.75-.32.41-.69,1.17-.81,1.68-2.42,10.02-4.27,16.37-6.68,26.39-.22,1.35-1.87,3.91-4.82,3.7-2.46-.19-1.82-.07-3.8-.58,0,2.78,0,5.39,0,8.01.02,6.08.07,12.15.06,18.23m11.39-49.68c2.21-10.02,3.99-20.11,4.94-30.33.43-4.6.94-9.21,1.09-13.82.18-5.46-2.48-9.36-7.36-11.67-5.08-2.4-10.38-2.5-15.81-1.44-5.37,1.05-8.85,3.95-10.96,9.22-5.08,12.63-8.15,25.75-10.22,38.88,12.62,3.33,25.34,6.69,38.1,10.06.03-.14.14-.52.22-.91Zm-43.06,11.94c-.13.39.03,1.18.32,1.36.66.43,1.47.67,2.25.86,8.96,2.14,17.93,4.25,26.9,6.37,2.66.63,6.32,1.75,7.63.82,1.75-1.13,3.6-11.32,5.16-17.54-12.63-4.12-25.3-7.48-38.25-10.13-.09.45-.19.83-.26,1.22-.94,5.75-1.86,11.5-3.76,17.04Z"/>
      </g>
      <path class="cls-9" d="m246.4,60.97c1.54,0,1.55-2.4,0-2.4s-1.55,2.4,0,2.4h0Z"/>
      <path class="cls-9" d="m257.12,62.04c1.54,0,1.55-2.4,0-2.4s-1.55,2.4,0,2.4h0Z"/>
      <path class="cls-1" d="m245.09,52.42c1.19-.03,2.38-.02,3.57.04,1.54.07,1.54-2.33,0-2.4-1.19-.06-2.38-.07-3.57-.04-1.54.04-1.55,2.44,0,2.4h0Z"/>
      <path class="cls-1" d="m258.75,53.97c1.15.3,2.17.83,3.28,1.25.61.23,1.32-.25,1.48-.84.18-.67-.23-1.25-.84-1.48-1.1-.41-2.13-.94-3.28-1.25-1.5-.39-2.13,1.92-.64,2.31h0Z"/>
      <g>
        <path class="cls-6" d="m237.75,67.24c-.39,2.85.15,5.82,1.51,8.35.33.61.71,1.21,1.23,1.67,1.18,1.07,2.87,1.31,4.44,1.5,1.42.17,2.86.32,4.27.1.82-.13,1.62-.39,2.41-.66,1.89-.64,3.78-1.33,5.48-2.38s3.21-2.48,4.06-4.3c-1.28.15-2.45.79-3.69,1.17-1.59.5-3.28.57-4.94.57-2.41,0-4.87-.18-7.12-1.06-1.6-.63-3.04-1.61-4.41-2.65-1.02-.78-2.01-1.61-2.96-2.47"/>
        <path class="cls-1" d="m236.55,67.24c-.51,6.2,1.62,11.86,8.23,12.7s14.06-2.06,17.41-7.81c.54-.93-.35-1.99-1.36-1.76-3.84.88-7.19,2.04-11.21,1.58-4.37-.49-7.53-2.88-10.74-5.71-1.15-1.02-2.86.67-1.7,1.7,3.15,2.78,6.45,5.4,10.68,6.19,5,.93,8.87-.35,13.61-1.44l-1.36-1.76c-2.5,4.29-8.16,6.81-13.04,6.83-6.34.02-8.6-4.7-8.12-10.5.13-1.54-2.27-1.53-2.4,0h0Z"/>
      </g>
    </g>
    <path class="cls-11" d="m248.95,146.49c-.03,1.28-.01,2.58.03,3.87.05,1.58.41,2.27,1.93,2.65,2.58.63,5.37,1.42,8.04,1.5,1.7.05,1.7-2.59,0-2.64-1.48-.04-2.95-.44-4.39-.76-1.23-.27-2.62-.41-3.79-.88l.92.92c-.25-1.46-.14-3.15-.1-4.64.04-1.7-2.6-1.7-2.64,0h0Z"/>
  </g>
  <g>
    <path class="cls-4" d="m192.89,77.83c-2.3-.4-3.15-1.21-6.34-1.91.51-1.91,1-3.7,1.53-5.7,4.51.8,8.96,1.58,13.48,2.38-.1,1.59.15,4.84.05,6.44l-8.72-1.2Z"/>
    <g>
      <path class="cls-11" d="m202.23,81.6c1.17-.09,1.47-1.14,1.54-2.33.13-2.23.21-4.46.36-6.69.08-1.19-.5-1.78-1.52-2.27-.98-.47-1.95-1.08-2.71-1.85-1.28-1.29-1.42-5.25-.15-6.37,2.22-1.96,5.17-5.06,7.89-6.33,3.27-1.52,5.29-2.5,6.99-5.74,1.1-2.11.44-3.33-1.89-3.74-.93-.17-1.86-.36-2.78-.54q.28-2.17-1.6-3.1c-3.28-1.61-6.8-2.2-10.38-2.5-2.35-.2-4.7-.38-7.04-.58-.14,0-.16.03-.24.04-.84.48,0,1.82-.93,2.16-1.36-.06-2.45-.27-3.56-.33-2.04-.13-2.81.63-2.83,2.72-.03,2.99,1.31,5.5,3.32,7.46,2.43,2.37,4.25,5.04,5.76,8.05.66,1.31.85,2.53.57,3.87-.51,2.53-2.2,3.99-4.76,4.17-1.93.14-2.2.34-2.74,2.28-.48,1.69-.92,3.38-1.4,5.07-.56,2-.15,2.81,1.88,3.33,2.85.72,5.72,1.35,8.58,2.03l7.64,1.2Zm-13.13-31.08c-1.62-1.96-3.18-3.78-3.18-6.53,1.25.13,2.38.25,3.56.37-.12,2.04-.24,4-.37,6.16Zm-2.55,25.4c.51-1.91,1-3.7,1.53-5.7,4.51.8,8.96,1.58,13.48,2.38-.1,1.59-.24,4.43-.34,6.03m2.37-23.01c-.48.7-1.28,1.18-1.95,1.73-.31.25-.65.46-1,.65-4.75,2.68-4.86,7.4-3.51,11.2-1.35-.24-2.6-.47-3.81-.69.61-1.06,1.35-2.06,1.8-3.18.95-2.37.97-4.68-.5-6.96-1.51-2.33-2.64-4.89-2.79-7.69-.12-2.18.14-4.38.24-6.57.03-.59.11-1.18.18-1.83,5.12.48,10.3.37,15.19,2.73-.77,3.75-1.67,7.42-3.84,10.6Zm4.07-1.96c.64-2,1.17-3.65,1.73-5.39.93.19,1.88.39,2.93.6-1.06,2-2.59,3.41-4.66,4.79Z"/>
      <path class="cls-4" d="m197.13,69.2c-1.35-.24-2.6-.47-3.81-.69.61-1.06,1.35-2.06,1.8-3.18.95-2.37.97-4.68-.5-6.96-1.51-2.33-2.64-4.89-2.79-7.69-.12-2.18.14-4.38.24-6.57.03-.59.11-1.18.18-1.83,5.12.48,10.3.37,15.19,2.73-.77,3.75-1.67,7.42-3.84,10.6-.48.7-1.28,1.18-1.95,1.73-.31.25-.65.46-1,.65-4.75,2.68-4.86,7.4-3.51,11.2Z"/>
    </g>
  </g>
  <g>
    <g>
      <path class="cls-5" d="m50.2,89.61c-.02-.76-.03-1.53-.04-2.28s-.02-1.51-.03-2.27-.03-1.5-.06-2.25-.08-1.49-.14-2.24c-.2-2.33-.41-4.66-.62-6.98s-.43-4.65-.65-6.98c-.22-2.33-.45-4.65-.68-6.98-.23-2.33-.47-4.65-.72-6.97-.07-.7-.19-1.4-.36-2.08s-.38-1.34-.65-1.99-.59-1.27-.96-1.86-.8-1.17-1.29-1.71c-.66-.74-1.37-1.36-2.13-1.88s-1.56-.94-2.39-1.28-1.71-.59-2.61-.77-1.83-.29-2.77-.35c-1.42-.09-2.8-.05-4.16.09s-2.69.39-4,.74-2.59.8-3.85,1.34-2.5,1.17-3.72,1.88c-.81.47-1.51,1-2.11,1.59s-1.11,1.24-1.54,1.94-.78,1.46-1.06,2.27-.5,1.67-.66,2.58c-.37,2.03-.72,4.06-1.04,6.09s-.62,4.07-.87,6.11c-.25,2.04-.46,4.08-.61,6.13s-.24,4.11-.26,6.17c-.01,1.42,0,2.85,0,4.27s.04,2.85.07,4.28.07,2.87.1,4.31.07,2.89.09,4.34c3.3,0,6.59.03,9.89.1,3.3.07,6.59.18,9.9.33s6.6.35,9.91.61c3.31.25,6.62.56,9.94.92l.02-1.14.02-1.1.02-1.07.02-1.06v-2.84Z"/>
      <g>
        <path class="cls-5" d="m10.51,97.26c.07,4.47.18,8.63.18,12.79,0,1.84-.19,3.68-.38,5.52-.16,1.53.3,2.14,1.85,2.18,1.64.04,3.29.07,4.93.1,10.47.21,20.95.42,31.42.64.23,0,.47,0,1.05.02.05-2.38.07-4.69.15-7,.12-3.73.25-7.46.41-11.18.03-.78-.21-1.05-.99-1.1-10.2-.59-20.4-1.22-30.6-1.8-2.63-.15-5.28-.12-8.02-.18Z"/>
        <path class="cls-11" d="m7.94,88.68c.04,7.95.06,15.89.04,23.84,0,1.16-.25,2.31-.33,3.47-.15,2.33,1.33,4.1,3.7,4.27,2.2.16,4.41.16,6.62.23.28,0,.55.01,1,.02-.22,1.59-.39,3.12-.66,4.64-1.13,6.52-2.3,13.03-3.4,19.56-.14.81-.54,1.1-1.2,1.4-1.97.89-3.9,1.85-5.85,2.79-.85.41-1.41.99-.98,1.99.33.78,1.18.82,2.3.27,2.16-1.05,4.3-2.13,6.52-3.04,1.09-.45,1.44-1.05,1.62-2.19.6-3.88,1.41-7.73,2.07-11.6.78-4.54,1.49-9.1,2.24-13.75,6.23.13,12.47.25,18.62.38.69,3.12,1.32,6.18,2.04,9.21,1.21,5.06,2.7,10.07,3.63,15.17.41,2.26,1.13,3.35,3.33,3.98,2.24.64,4.3,1.93,6.47,2.83.54.22,1.37.26,1.85-.01.76-.44.5-1.66-.46-2.12-2.49-1.18-5.03-2.27-7.53-3.44-.37-.17-.83-.54-.92-.9-1.32-5.2-2.62-10.4-3.86-15.62-.7-2.95-1.29-5.94-1.99-9.19,2.62.18,4.07.15,6.42.17,1.7.01,2.8-1.37,2.88-2.65.16-2.56.04-3.72.12-6.29.19-6.86.45-13.73.48-20.59.04-10.44-.48-20.86-1.89-31.21-.43-3.18-.66-6.39-1.31-9.52-1.47-7.15-6.59-11.39-15.27-12.62l-2.53-.05c-1.44.16-3.63.39-4.82.62-3.95.77-7.54,2.35-10.88,4.6-3.25,2.19-4.78,5.28-5.48,9.07-1.77,9.53-3.07,19.09-2.84,28.82.01.52.04,1.04.06,1.56.02.51.05,1.02.09,1.76l.08,4.16Zm42.27,3.77l-.04,2.14-.05,2.24c-6.64-.73-13.25-1.22-19.85-1.53-6.6-.31-13.19-.43-19.78-.44-.05-2.91-.13-5.78-.19-8.65-.06-2.86-.1-5.71-.08-8.55.04-4.13.36-8.22.86-12.3.5-4.08,1.17-8.14,1.9-12.2.33-1.82.86-3.44,1.72-4.85.86-1.41,2.04-2.59,3.66-3.54,2.43-1.42,4.95-2.51,7.57-3.21,2.62-.7,5.33-1,8.17-.83,1.89.12,3.71.45,5.38,1.12,1.67.67,3.2,1.68,4.52,3.16.97,1.09,1.71,2.29,2.25,3.58.54,1.29.86,2.65,1.01,4.06.49,4.65.95,9.3,1.4,13.95.44,4.65.86,9.31,1.27,13.96.13,1.49.18,2.98.2,4.49s.03,3.02.07,4.55m-33.11,28.24c-1.64-.03-3.29-.06-4.93-.1-1.56-.04-2.01-.65-1.85-2.18.19-1.83.38-3.68.38-5.52,0-4.16-.11-8.32-.18-12.79,2.74.06,5.39.03,8.02.18,10.2.57,20.4,1.21,30.6,1.8.78.04,1.02.32.99,1.1-.17,3.73-.3,7.45-.41,11.18-.07,2.31-.13,3.71-.18,6.09.05.71-.78.89-1.02.89-10.47-.21-20.95-.42-31.42-.64Z"/>
        <path class="cls-12" d="m31.21,38.08l3.37.07-3.37-.07Z"/>
      </g>
      <path class="cls-10" d="m20.05,56.5c.9.11,1.73.19,2.55.34.79.14,1.17.66,1.04,1.47-.14.83-.7,1.09-1.48,1.03-1.11-.09-2.22-.22-3.33-.27-.91-.04-1.6-.32-1.6-1.35,0-1,.74-1.22,1.57-1.24.44,0,.88.01,1.25.02Z"/>
      <path class="cls-3" d="m37.07,60.05c-.6-.01-1.2-.03-1.8-.03-.84,0-1.29-.49-1.28-1.26,0-.78.52-1.23,1.32-1.23,1.24,0,2.47.02,3.71.08.81.04,1.22.55,1.2,1.34-.02.77-.49,1.14-1.25,1.14-.64,0-1.28-.02-1.91-.03Z"/>
      <path class="cls-8" d="m22.12,65.77c1.93,0,1.93-3,0-3s-1.93,3,0,3h0Z"/>
      <path class="cls-8" d="m35.67,67.53c1.93,0,1.93-3,0-3s-1.93,3,0,3h0Z"/>
    </g>
    <path class="cls-11" d="m16.38,73.94c6.99,6.42,18.11,7.64,26.21,2.7,1.32-.8.11-2.88-1.21-2.07-7.15,4.37-17.1,3.37-23.3-2.32-1.14-1.04-2.84.65-1.7,1.7h0Z"/>
    <path class="cls-11" d="m8,81.74c-3.77,5.99-7.23,11.08-7.93,18.3s3.62,10.26,7.52,15.28c.94,1.22,2.63-.49,1.7-1.7-1.45-1.88-3.19-3.52-4.59-5.43-2.61-3.54-2.51-7.13-1.65-11.33,1.09-5.27,4.21-9.44,7.03-13.91.83-1.31-1.25-2.52-2.07-1.21h0Z"/>
    <path class="cls-11" d="m50.44,86.35c3.79,11.79,6.2,23.9,7.47,36.21.16,1.52,2.56,1.54,2.4,0-1.29-12.53-3.7-24.86-7.56-36.85-.47-1.46-2.79-.84-2.31.64h0Z"/>
    <g>
      <path class="cls-4" d="m53.4,134.44c-1.9-1.36-2.31-2.46-4.88-4.48,1.29-1.49,2.51-2.9,3.86-4.47,3.71,2.68,7.38,5.32,11.1,8.01-.78,1.39-1.97,4.43-2.75,5.82l-7.33-4.88Z"/>
      <g>
        <path class="cls-11" d="m60.17,141.89c1.09.43,1.82-.38,2.4-1.43,1.09-1.95,2.13-3.93,3.23-5.87.59-1.04.32-1.82-.38-2.71-.67-.85-1.29-1.82-1.64-2.84-.59-1.72,1-5.34,2.64-5.8,2.85-.8,6.86-2.31,9.85-2.27,3.61.05,5.85.05,8.79-2.13,1.91-1.42,1.85-2.8-.07-4.19-.77-.56-1.52-1.13-2.27-1.7q1.2-1.84-.1-3.49c-2.25-2.87-5.17-4.93-8.26-6.77-2.03-1.2-4.06-2.39-6.09-3.58-.13-.07-.15-.05-.23-.07-.97.07-.78,1.64-1.77,1.54-1.2-.64-2.09-1.31-3.06-1.85-1.78-1-2.8-.66-3.73,1.22-1.33,2.68-1.21,5.52-.25,8.16,1.16,3.19,1.64,6.39,1.69,9.75.02,1.47-.34,2.64-1.17,3.74-1.56,2.06-3.72,2.63-6.1,1.69-1.8-.72-2.13-.65-3.46.86-1.16,1.31-2.3,2.64-3.46,3.96-1.38,1.56-1.36,2.47.24,3.81,2.25,1.89,4.56,3.71,6.85,5.55l6.35,4.4Zm1.69-33.7c-.61-2.48-1.22-4.79-.03-7.26,1.07.66,2.04,1.26,3.04,1.88-1,1.78-1.96,3.5-3.02,5.38Zm-13.34,21.76c1.29-1.49,2.51-2.9,3.86-4.47,3.71,2.68,7.38,5.32,11.1,8.01-.78,1.39-2.14,3.89-2.93,5.28m12.14-19.69c-.73.42-1.66.51-2.51.71-.38.09-.79.13-1.18.15-5.44.35-7.6,4.55-8.04,8.56-1.11-.81-2.13-1.55-3.13-2.28,1.01-.69,2.11-1.27,3.01-2.08,1.89-1.72,2.91-3.79,2.57-6.49-.35-2.75-.25-5.55.83-8.14.84-2.01,2.02-3.88,3.07-5.81.28-.52.61-1.01.96-1.57,4.4,2.66,9.12,4.82,12.5,9.06-2.33,3.04-4.72,5.95-8.06,7.88Zm4.52,0c1.45-1.52,2.64-2.78,3.9-4.1.76.58,1.53,1.17,2.38,1.82-1.83,1.34-3.81,1.94-6.28,2.28Z"/>
        <path class="cls-4" d="m60.96,128.51c-1.11-.81-2.13-1.55-3.13-2.28,1.01-.69,2.11-1.27,3.01-2.08,1.89-1.72,2.91-3.79,2.57-6.49-.35-2.75-.25-5.55.83-8.14.84-2.01,2.02-3.88,3.07-5.81.28-.52.61-1.01.96-1.57,4.4,2.66,9.12,4.82,12.5,9.06-2.33,3.04-4.72,5.95-8.06,7.88-.73.42-1.66.51-2.51.71-.38.09-.79.13-1.18.15-5.44.35-7.6,4.55-8.04,8.56Z"/>
      </g>
    </g>
  </g>
  <g>
    <g>
      <g>
        <path class="cls-2" d="m111.98,120.65v-19.06c12.88-1.15,25.95-1.45,39.22-1.13-.1,1.8-.28,3.5-.28,5.2-.01,4.35.02,8.7.1,13.05.02,1.26-.39,1.84-1.66,1.94-.12,0-.24,0-.36,0-12.05.02-24.1.04-36.15.06-.2,0-.39-.03-.87-.06Z"/>
        <g>
          <path class="cls-11" d="m109.36,89.95c-.02,2.99-.21,5.99-.17,8.98.09,7.67.62,12.53.78,20.2.08,1.92,1.34,3.66,3,3.96,2.09.37,2.61.31,4.85.31-.64,2.83-1.17,5.56-1.88,8.25-1.41,5.43-2.94,10.83-4.35,16.27-.18.68-.4.96-1.03,1.21-2.47.98-4.92,2.02-7.34,3.13-.45.21-.97.84-.99,1.29-.02.43-.05,1.11.91,1.28.84-.01.86-.08,1.28-.25,2.8-1.1,5.57-2.24,8.33-3.42.47-.2,1.05-.77,1.1-1.22.53-4.91,2.17-9.54,3.48-14.26,1.13-4.06,2.12-8.16,3.21-12.41h18.29c.3,2.28.58,4.6.93,6.91.9,5.99,1.95,11.97,2.67,17.98.25,2.1,1.19,2.98,3.01,3.64l6.3,3.05c.5.2,1.24-.09,1.34-.85.1-.74-.52-1.4-.96-1.65-1.93-1.1-3.92-2.11-5.94-3.04-.76-.35-1.05-.78-1.17-1.57-.8-5.37-1.68-10.73-2.49-16.1-.41-2.75-.74-5.51-1.12-8.4l8.11-.08c2.69-.06,3.86-1.96,3.82-4.64-.03-1.83-.14-3.64-.1-5.47.17-7.79.42-15.57.69-23.35l.2-3.97c.07-1.49.18-2.96.2-4.44.1-8.74-.99-17.37-2.4-25.97-.56-3.41-1.86-6.3-4.69-8.43-5.46-4.1-11.58-6.13-18.39-5.83-8.76.38-14.51,4.7-15.85,13.58-1.19,7.85-1.99,15.76-2.94,23.64-.19,1.55-.25,3.12-.37,4.68m41.23,22.68c-.01,4.35-.34,8.34-.26,12.69.02,1.26-.03,2.2-1.3,2.3-.12,0-.24,0-.36,0-12.05.02-22.62.35-34.66.05-2.35-.06-2.15-2.07-2.35-3.05v-16.07c12.88-1.15,25.95-1.45,39.22-1.13-.1,1.8-.28,3.5-.28,5.2Zm.41-11.82c-.04,1.31,0,2.63,0,4.12-13.28-.38-26.37,0-39.38,1.09,0-3.08-.18-6.12.03-9.13.57-8,1.21-16,2.01-23.98.4-4.01.94-8.03,1.83-11.95,1.46-6.42,5.17-9.6,11.73-10.29,6.59-.69,12.52,1.24,17.9,5,2.24,1.57,3.42,3.8,3.88,6.49,1.39,8.04,2.47,16.11,2.47,24.28,0,4.79-.31,9.58-.47,14.36Z"/>
          <path class="cls-2" d="m151.39,97.94c-13.28-.38-26.37,0-39.38,1.09,0-3.08-.18-6.12.03-9.13.57-8,1.21-16,2.01-23.98.4-4.01.94-8.03,1.83-11.95,1.46-6.42,5.17-9.6,11.73-10.29,6.59-.69,12.52,1.24,17.9,5,2.24,1.57,3.42,3.8,3.88,6.49,1.39,8.04,2.47,16.11,2.47,24.28,0,4.79-.31,9.58-.47,14.36-.04,1.31,0,2.63,0,4.12Z"/>
        </g>
      </g>
      <path class="cls-9" d="m124.94,63.49c1.54,0,1.55-2.4,0-2.4s-1.55,2.4,0,2.4h0Z"/>
      <path class="cls-9" d="m136.75,63.82c1.54,0,1.55-2.4,0-2.4s-1.55,2.4,0,2.4h0Z"/>
      <path class="cls-9" d="m120.44,55.1c1.59-.49,3.2-.93,4.82-1.33,1.5-.36.86-2.68-.64-2.31-1.62.39-3.23.84-4.82,1.33-1.47.45-.84,2.77.64,2.31h0Z"/>
      <path class="cls-9" d="m137.78,53.82c1.77.28,3.5.69,5.2,1.24,1.47.48,2.1-1.84.64-2.31-1.7-.55-3.43-.96-5.2-1.24-1.51-.24-2.16,2.07-.64,2.31h0Z"/>
    </g>
    <g>
      <path class="cls-6" d="m117.77,72.1c-.07,2.15,1.61,4.02,3.33,5.31s3.8,2,5.86,2.66c1.89.6,3.81,1.19,5.78,1.38,1.26.12,1.01.14,2.28.07.87-.05,2.08-.28,2.92-.53.66-.2,1.65-.45,2.26-.77.8-.43,2.04-1.36,2.7-1.98,1.64-1.55,2.62-5.51,2.71-7.77-6.11,2.74-8.71,3.18-13.33,2.93-7.13-.4-7.8-2.41-14.39-4.51-.1.34-.23,2.53-.15,2.89l.04.33Z"/>
      <path class="cls-11" d="m116.57,72.1c.91,7.39,11.14,10.65,17.58,10.66,7.68.02,12.02-5.01,12.65-12.29.09-1.01-1.06-1.36-1.81-1.04-5.08,2.22-9.92,3.44-15.49,2.48-3.96-.68-7.52-2.9-11.31-4.19-.56-.19-1.39.22-1.48.84-.16,1.17-.3,2.36-.15,3.54.19,1.51,2.6,1.53,2.4,0-.12-.96-.07-1.95.06-2.9l-1.48.84c5.07,1.73,9.25,4.23,14.71,4.56,5.05.31,9.34-1.08,13.94-3.09l-1.81-1.04c-.52,5.99-4.13,9.78-10.25,9.89-4.83.09-14.5-2.75-15.18-8.26-.19-1.51-2.59-1.53-2.4,0Z"/>
    </g>
  </g>
  <path class="cls-11" d="m153.86,87.56c6.52-5.92,8.26-18.87,5.1-26.84-3.72-9.39-8.78-18.69-17.13-24.68-1.26-.9-2.46,1.18-1.21,2.07,6.85,4.92,10.91,12.08,14.38,19.59,3.85,8.33,4.67,21.34-2.84,28.16-1.15,1.04.56,2.73,1.7,1.7h0Z"/>
  <path class="cls-11" d="m111.84,87.04c-7.15-17.96-4.1-38.21,11.69-50.43,1.22-.94-.49-2.63-1.7-1.7-16.38,12.67-19.72,34.13-12.31,52.77.56,1.42,2.89.8,2.31-.64h0Z"/>
  <g>
    <path class="cls-4" d="m130.78,38.27c-2.34.08-3.33-.53-6.6-.56.11-1.97.21-3.83.32-5.9,4.58-.15,9.09-.3,13.68-.45.23,1.58,1.15,4.71,1.38,6.29l-8.78.62Z"/>
    <g>
      <path class="cls-11" d="m140.69,40.03c1.12-.33,1.2-1.41,1.02-2.6-.33-2.21-.72-4.41-1.03-6.62-.17-1.19-.86-1.64-1.96-1.91-1.05-.26-2.13-.66-3.03-1.25-1.52-1-2.47-4.84-1.46-6.2,1.76-2.38,4.01-6.02,6.41-7.82,2.88-2.16,4.66-3.54,5.65-7.06.64-2.3-.25-3.35-2.62-3.27-.95.03-1.89.03-2.83.05q-.17-2.19-2.21-2.7c-3.54-.9-7.1-.74-10.68-.3-2.34.29-4.67.6-7.01.89-.14.02-.15.06-.22.09-.72.65.38,1.78-.46,2.31-1.34.23-2.45.25-3.55.41-2.02.3-2.62,1.2-2.21,3.25.59,2.93,2.42,5.11,4.79,6.61,2.87,1.82,5.21,4.05,7.3,6.68.92,1.15,1.35,2.3,1.36,3.67.02,2.58-1.33,4.36-3.79,5.06-1.86.53-2.08.79-2.21,2.79-.12,1.75-.2,3.5-.32,5.25-.13,2.08.43,2.78,2.52,2.87,2.94.11,5.88.14,8.81.21l7.72-.4Zm-19.27-27.69c-1.99-1.59-3.89-3.04-4.46-5.73,1.25-.13,2.38-.25,3.56-.37.3,2.02.59,3.96.91,6.1Zm2.76,25.38c.11-1.97.21-3.83.32-5.9,4.58-.15,9.09-.3,13.68-.45.23,1.58.68,4.39.91,5.97m-2.44-23c-.32.78-1.01,1.42-1.55,2.1-.25.31-.54.58-.84.84-4.09,3.6-3.23,8.25-1.12,11.69-1.37.04-2.64.08-3.87.11.38-1.16.89-2.3,1.1-3.49.44-2.51-.02-4.78-1.93-6.71-1.96-1.96-3.59-4.24-4.32-6.95-.57-2.11-.77-4.31-1.12-6.47-.09-.58-.13-1.17-.2-1.83,5.11-.59,10.16-1.77,15.43-.47.02,3.83-.1,7.6-1.56,11.17Zm3.58-2.76c.21-2.09.39-3.81.58-5.63.95,0,1.92-.01,2.99-.02-.63,2.18-1.83,3.87-3.57,5.65Z"/>
      <path class="cls-4" d="m133.13,28.96c-1.37.04-2.64.08-3.87.11.38-1.16.89-2.3,1.1-3.49.44-2.51-.02-4.78-1.93-6.71-1.96-1.96-3.59-4.24-4.32-6.95-.57-2.11-.77-4.31-1.12-6.47-.09-.58-.13-1.17-.2-1.83,5.11-.59,10.16-1.77,15.43-.47.02,3.83-.1,7.6-1.56,11.17-.32.78-1.01,1.42-1.55,2.1-.25.31-.54.58-.84.84-4.09,3.6-3.23,8.25-1.12,11.69Z"/>
    </g>
  </g>
  <g>
    <g>
      <path class="cls-10" d="m354.66,155.13c-1.83-.33-3.65-.75-5.49-.96-1.45-.17-1.67-.38-1.87-1.87-.35-2.61-.87-5.19-1.29-7.79-1.24-7.7-1.96-15.44-2.12-23.24,0-.28-.04-.55-.06-.9h-21.25c-.22,2.29-.45,4.62-.66,6.95-.75,8.19-1.48,16.38-2.25,24.57-.2,2.11-.47,2.31-2.55,2.49-1.54.13-3.09.3-4.63.49-.9.11-1.4-.34-1.51-1.15-.11-.82.42-1.25,1.18-1.37.82-.13,1.66-.2,2.49-.29.79-.09,1.58-.17,2.45-.26.97-10.48,1.93-20.93,2.91-31.61-2.1.12-4.15.18-6.18.37-1.11.1-1.7-.37-1.74-1.66-.09-2.95-.22-5.91-.25-8.86-.06-5.39-.06-10.78-.09-16.17.05-.7.09-1.4.14-2.1-.08,0-.15-.01-.23-.02-.09.72-.18,1.45-.26,2.17-.48,6.57-.97,13.13-1.45,19.7-.07,1-.08,2-.22,2.98-.36,2.49-.36,4.9,1.03,7.15.42.69.24,1.48-.59,1.79-.74.28-1.42.06-1.73-.79-.07-.19-.17-.36-.34-.72-.26.61-.46,1.09-.68,1.57-.32.7-.83,1.09-1.62.78-.8-.32-1.04-.92-.74-1.74.15-.41.29-.82.49-1.37-.35.05-.59.08-.84.12-.83.16-1.46-.15-1.66-.97-.21-.86.33-1.37,1.11-1.57.84-.22,1.71-.35,2.76-.55.22-3.53.46-7.1.66-10.68.42-7.69.65-15.41,2.62-22.92.48-1.85,1.2-3.63,1.73-5.47.23-.79.27-1.63.36-2.46.78-7.14,1.53-14.29,2.35-21.42.25-2.22.55-4.44,1.03-6.62,1.66-7.54,6.33-11.67,14.01-12.51.28-.03.55-.17.82-.25,1.2,0,2.39,0,3.59,0,.2.07.4.2.6.22,5.61.48,10.65,2.42,15.1,5.9,2.22,1.73,3.69,3.91,4.22,6.72,1.63,8.64,2.74,17.35,2.71,26.16,0,2.84.22,5.58,1.01,8.33,2.06,7.2,2.28,14.64,2.55,22.06.12,3.42.33,6.84.5,10.18.22.69,3.32.06,3.55,1.17,0,.16.15,1-.38,1.41-.83.37-2-.08-2.41.47-.5.7.92,2.24-.73,2.66-1.83.46-1.43-1.42-2-2.4-.4.38-.71.68-1.03.96-.59.52-1.23.62-1.81.05-.61-.6-.56-1.3.03-1.9.44-.45.91-.91,1.45-1.23.68-.41.86-.9.79-1.68-.2-2.42-.3-4.85-.46-7.28-.41-5.92-.83-11.84-1.24-17.77-.09-.56-.18-1.11-.27-1.67-.07,0-.13.02-.2.02.05.55.1,1.09.15,1.64-.12,3.59-.33,7.18-.35,10.78-.02,4.38.04,8.77.2,13.16.07,1.86-.66,3.12-2.23,3.85-.79.37-1.75.47-2.65.51-1.57.08-3.15.02-4.79.02.23,10.68,1.38,21.04,3.41,31.13,1.82.37,3.46.69,5.09,1.03.84.17,1.57.54,1.5,1.55-.08,1.08-.93,1.14-1.77,1.12Zm-.97-60.12c.17-6.62.42-13.09.47-19.55.06-7.86-1.14-15.61-2.42-23.34-.49-2.95-1.99-5.19-4.44-6.8-5.04-3.31-10.56-5.06-16.61-4.63-4.87.35-9.11,2.12-11.15,6.94-1.06,2.5-1.7,5.25-2.09,7.94-1.5,10.36-2.77,20.75-2.98,31.24-.06,3.07,0,6.14,0,9.29,12.95-1.03,26.02-1.5,39.23-1.08Zm-39.14,22.72h3.26c8.48,0,16.96,0,25.44,0,2.75,0,5.49.02,8.24,0,1.49-.01,1.99-.54,1.96-1.77-.1-3.71-.22-7.42-.21-11.13,0-2.39.25-4.77.39-7.27-13.2-.34-26.28-.05-39.45,1.13.12,6.43.25,12.72.37,19.05Z"/>
      <path class="cls-13" d="m353.7,95.01c-13.21-.42-26.28.05-39.23,1.08,0-3.15-.05-6.22,0-9.29.2-10.49,1.47-20.88,2.98-31.24.39-2.7,1.03-5.44,2.09-7.94,2.04-4.82,6.28-6.59,11.15-6.94,6.05-.43,11.57,1.33,16.61,4.63,2.45,1.61,3.95,3.85,4.44,6.8,1.28,7.73,2.48,15.48,2.42,23.34-.05,6.46-.3,12.93-.47,19.55Z"/>
      <path class="cls-13" d="m314.56,117.73c-.12-6.34-.24-12.63-.37-19.05,13.17-1.17,26.25-1.47,39.45-1.13-.14,2.5-.38,4.89-.39,7.27-.02,3.71.11,7.42.21,11.13.03,1.23-.46,1.75-1.96,1.77-2.75.03-5.49,0-8.24,0-8.48,0-16.96,0-25.44,0h-3.26Z"/>
    </g>
    <path class="cls-9" d="m321.6,69.86c8.28,5.88,17.88,5.77,26.48.25,1.3-.83.09-2.91-1.21-2.07-3.66,2.35-7.62,3.63-11.98,3.91-4.8.31-8.27-1.46-12.08-4.16-1.26-.9-2.46,1.18-1.21,2.07h0Z"/>
    <path class="cls-9" d="m327.35,61.65c1.54,0,1.55-2.4,0-2.4s-1.55,2.4,0,2.4h0Z"/>
    <path class="cls-9" d="m339.47,61.74c1.54,0,1.55-2.4,0-2.4s-1.55,2.4,0,2.4h0Z"/>
    <path class="cls-9" d="m322.93,55.57c1.31-.82,2.53-1.21,4.07-.77s2.12-1.89.64-2.31c-2.12-.61-4.09-.14-5.92,1.01-1.31.82-.1,2.89,1.21,2.07h0Z"/>
    <path class="cls-9" d="m340.02,55.57c1.02-.23,2.09-.36,2.93.34,1.18.97,2.89-.71,1.7-1.7-1.58-1.3-3.31-1.4-5.27-.95-1.51.34-.87,2.66.64,2.31h0Z"/>
  </g>
  <g>
    <path class="cls-4" d="m369.12,153.16c-2.32-.29-3.2-1.06-6.43-1.61.42-1.93.82-3.75,1.26-5.77,4.54.58,9.02,1.15,13.58,1.74-.02,1.6.38,4.83.36,6.43l-8.77-.79Z"/>
    <g>
      <path class="cls-11" d="m378.63,156.48c1.16-.14,1.41-1.2,1.43-2.4.02-2.23,0-4.47.04-6.7.02-1.2-.59-1.75-1.63-2.2-1-.43-2-.99-2.79-1.72-1.34-1.23-1.67-5.17-.45-6.36,2.12-2.06,4.92-5.31,7.58-6.7,3.19-1.68,5.17-2.75,6.7-6.07,1-2.16.28-3.34-2.06-3.65-.94-.12-1.88-.27-2.8-.41q.18-2.18-1.75-3.02c-3.35-1.45-6.89-1.87-10.49-2.01-2.35-.09-4.71-.16-7.06-.24-.14,0-.16.03-.23.05-.82.52.09,1.82-.82,2.2-1.36,0-2.46-.15-3.57-.16-2.04-.03-2.78.76-2.7,2.85.11,2.99,1.57,5.43,3.67,7.29,2.54,2.25,4.49,4.83,6.14,7.76.72,1.28.97,2.48.76,3.84-.39,2.55-2.01,4.09-4.55,4.39-1.93.23-2.18.45-2.63,2.4-.39,1.71-.76,3.42-1.15,5.13-.46,2.03-.02,2.82,2.03,3.23,2.88.58,5.78,1.08,8.67,1.61l7.68.84Zm-14.6-30.42c-1.72-1.88-3.36-3.63-3.49-6.37,1.26.07,2.39.13,3.57.2-.03,2.04-.05,4.01-.08,6.17Zm-1.33,25.49c.42-1.93.82-3.75,1.26-5.77,4.54.58,9.02,1.15,13.58,1.74-.02,1.6-.03,4.44-.05,6.04m1.27-23.1c-.44.72-1.22,1.24-1.87,1.83-.29.27-.63.49-.97.7-4.61,2.9-4.5,7.63-2.97,11.36-1.36-.18-2.62-.34-3.84-.51.56-1.09,1.25-2.13,1.65-3.27.84-2.41.75-4.72-.84-6.93-1.62-2.25-2.87-4.76-3.16-7.55-.22-2.17-.07-4.38-.07-6.57,0-.59.06-1.18.09-1.84,5.14.23,10.31-.12,15.31,2-.59,3.78-1.31,7.49-3.32,10.78Zm3.98-2.16c.55-2.03,1-3.7,1.47-5.47.94.15,1.9.3,2.96.46-.97,2.05-2.42,3.53-4.43,5Z"/>
      <path class="cls-4" d="m372.94,144.34c-1.36-.18-2.62-.34-3.84-.51.56-1.09,1.25-2.13,1.65-3.27.84-2.41.75-4.72-.84-6.93-1.62-2.25-2.87-4.76-3.16-7.55-.22-2.17-.07-4.38-.07-6.57,0-.59.06-1.18.09-1.84,5.14.23,10.31-.12,15.31,2-.59,3.78-1.31,7.49-3.32,10.78-.44.72-1.22,1.24-1.87,1.83-.29.27-.63.49-.97.7-4.61,2.9-4.5,7.63-2.97,11.36Z"/>
    </g>
  </g>
</svg>