<?xml version="1.0" encoding="UTF-8"?>
<svg id="Lag_1" data-name="Lag 1" xmlns="http://www.w3.org/2000/svg" viewBox="0 0 61.35 117.15">
  <defs>
    <style>
      .cls-1 {
        fill: #ffdc0a;
      }

      .cls-1, .cls-2, .cls-3 {
        stroke-width: 0px;
      }

      .cls-2 {
        fill: #1e1e1c;
      }

      .cls-3 {
        fill: #070708;
      }
    </style>
  </defs>
  <g>
    <path class="cls-3" d="m51.64,117.15c-1.83-.33-3.65-.75-5.49-.96-1.45-.17-1.67-.38-1.87-1.87-.35-2.61-.87-5.19-1.29-7.79-1.24-7.7-1.96-15.44-2.12-23.24,0-.28-.04-.55-.06-.9h-21.25c-.22,2.29-.45,4.62-.66,6.95-.75,8.19-1.48,16.38-2.25,24.57-.2,2.11-.47,2.31-2.55,2.49-1.54.13-3.09.3-4.63.49-.9.11-1.4-.34-1.51-1.15-.11-.82.42-1.25,1.18-1.37.82-.13,1.66-.2,2.49-.29.79-.09,1.58-.17,2.45-.26.97-10.48,1.93-20.93,2.91-31.61-2.1.12-4.15.18-6.18.37-1.11.1-1.7-.37-1.74-1.66-.09-2.95-.22-5.91-.25-8.86-.06-5.39-.06-10.78-.09-16.17.05-.7.09-1.4.14-2.1-.08,0-.15-.01-.23-.02-.09.72-.18,1.45-.26,2.17-.48,6.57-.97,13.13-1.45,19.7-.07,1-.08,2-.22,2.98-.36,2.49-.36,4.9,1.03,7.15.42.69.24,1.48-.59,1.79-.74.28-1.42.06-1.73-.79-.07-.19-.17-.36-.34-.72-.26.61-.46,1.09-.68,1.57-.32.7-.83,1.09-1.62.78-.8-.32-1.04-.92-.74-1.74.15-.41.29-.82.49-1.37-.35.05-.59.08-.84.12-.83.16-1.46-.15-1.66-.97-.21-.86.33-1.37,1.11-1.57.84-.22,1.71-.35,2.76-.55.22-3.53.46-7.1.66-10.68.42-7.69.65-15.41,2.62-22.92.48-1.85,1.2-3.63,1.73-5.47.23-.79.27-1.63.36-2.46.78-7.14,1.53-14.29,2.35-21.42.25-2.22.55-4.44,1.03-6.62C14.32,5.23,19,1.1,26.67.25c.28-.03.55-.17.82-.25,1.2,0,2.39,0,3.59,0,.2.07.4.2.6.22,5.61.48,10.65,2.42,15.1,5.9,2.22,1.73,3.69,3.91,4.22,6.72,1.63,8.64,2.74,17.35,2.71,26.16,0,2.84.22,5.58,1.01,8.33,2.06,7.2,2.28,14.64,2.55,22.06.12,3.42.33,6.84.5,10.18.22.69,3.32.06,3.55,1.17,0,.16.15,1-.38,1.41-.83.37-2-.08-2.41.47-.5.7.92,2.24-.73,2.66-1.83.46-1.43-1.42-2-2.4-.4.38-.71.68-1.03.96-.59.52-1.23.62-1.81.05-.61-.6-.56-1.3.03-1.9.44-.45.91-.91,1.45-1.23.68-.41.86-.9.79-1.68-.2-2.42-.3-4.85-.46-7.28-.41-5.92-.83-11.84-1.24-17.77-.09-.56-.18-1.11-.27-1.67-.07,0-.13.02-.2.02.05.55.1,1.09.15,1.64-.12,3.59-.33,7.18-.35,10.78-.02,4.38.04,8.77.2,13.16.07,1.86-.66,3.12-2.23,3.85-.79.37-1.75.47-2.65.51-1.57.08-3.15.02-4.79.02.23,10.68,1.38,21.04,3.41,31.13,1.82.37,3.46.69,5.09,1.03.84.17,1.57.54,1.5,1.55-.08,1.08-.93,1.14-1.77,1.12Zm-.97-60.12c.17-6.62.42-13.09.47-19.55.06-7.86-1.14-15.61-2.42-23.34-.49-2.95-1.99-5.19-4.44-6.8-5.04-3.31-10.56-5.06-16.61-4.63-4.87.35-9.11,2.12-11.15,6.94-1.06,2.5-1.7,5.25-2.09,7.94-1.5,10.36-2.77,20.75-2.98,31.24-.06,3.07,0,6.14,0,9.29,12.95-1.03,26.02-1.5,39.23-1.08Zm-39.14,22.72h3.26c8.48,0,16.96,0,25.44,0,2.75,0,5.49.02,8.24,0,1.49-.01,1.99-.54,1.96-1.77-.1-3.71-.22-7.42-.21-11.13,0-2.39.25-4.77.39-7.27-13.2-.34-26.28-.05-39.45,1.13.12,6.43.25,12.72.37,19.05Z"/>
    <path class="cls-1" d="m50.67,57.03c-13.21-.42-26.28.05-39.23,1.08,0-3.15-.05-6.22,0-9.29.2-10.49,1.47-20.88,2.98-31.24.39-2.7,1.03-5.44,2.09-7.94,2.04-4.82,6.28-6.59,11.15-6.94,6.05-.43,11.57,1.33,16.61,4.63,2.45,1.61,3.95,3.85,4.44,6.8,1.28,7.73,2.48,15.48,2.42,23.34-.05,6.46-.3,12.93-.47,19.55Z"/>
    <path class="cls-1" d="m11.53,79.75c-.12-6.34-.24-12.63-.37-19.05,13.17-1.17,26.25-1.47,39.45-1.13-.14,2.5-.38,4.89-.39,7.27-.02,3.71.11,7.42.21,11.13.03,1.23-.46,1.75-1.96,1.77-2.75.03-5.49,0-8.24,0-8.48,0-16.96,0-25.44,0h-3.26Z"/>
  </g>
  <path class="cls-2" d="m18.72,32.81c7.78,5.17,18.47,4.58,26.27-.35,1.3-.82.1-2.9-1.21-2.07-7.11,4.5-16.75,5.07-23.85.35-1.29-.86-2.49,1.22-1.21,2.07h0Z"/>
  <path class="cls-2" d="m24.33,23.67c1.54,0,1.55-2.4,0-2.4s-1.55,2.4,0,2.4h0Z"/>
  <path class="cls-2" d="m36.44,23.76c1.54,0,1.55-2.4,0-2.4s-1.55,2.4,0,2.4h0Z"/>
  <path class="cls-2" d="m20.07,18.8c1.31-.82,2.53-1.21,4.07-.77s2.12-1.89.64-2.31c-2.12-.61-4.09-.14-5.92,1.01-1.31.82-.1,2.89,1.21,2.07h0Z"/>
  <path class="cls-2" d="m36.78,18.69c1.02-.23,2.09-.36,2.93.34,1.18.97,2.89-.71,1.7-1.7-1.58-1.3-3.31-1.4-5.27-.95-1.51.34-.87,2.66.64,2.31h0Z"/>
</svg>