<?xml version="1.0" encoding="UTF-8"?>
<svg id="Lag_1" data-name="Lag 1" xmlns="http://www.w3.org/2000/svg" viewBox="0 0 304.4 259.24">
  <defs>
    <style>
      .cls-1 {
        fill: #050506;
      }

      .cls-1, .cls-2, .cls-3, .cls-4, .cls-5, .cls-6, .cls-7, .cls-8, .cls-9, .cls-10, .cls-11, .cls-12, .cls-13, .cls-14, .cls-15, .cls-16, .cls-17 {
        stroke-width: 0px;
      }

      .cls-2 {
        fill: #ce635d;
      }

      .cls-3 {
        fill: #040404;
      }

      .cls-4 {
        fill: #010101;
      }

      .cls-5 {
        fill: #edeeed;
      }

      .cls-6 {
        fill: #5599ca;
      }

      .cls-7 {
        fill: #fff;
      }

      .cls-8 {
        fill: #f4aab2;
      }

      .cls-9 {
        fill: #0c0c0c;
      }

      .cls-10 {
        fill: #c7c6c6;
      }

      .cls-11 {
        fill: #878787;
      }

      .cls-12 {
        fill: #1e1e1c;
      }

      .cls-13 {
        fill: #070708;
      }

      .cls-14 {
        fill: #050606;
      }

      .cls-15 {
        fill: #444;
      }

      .cls-16 {
        fill: #6abc8b;
      }

      .cls-17 {
        fill: #1d1d1b;
      }
    </style>
  </defs>
  <g>
    <rect class="cls-10" x="151.86" y="120.35" width="76.27" height="138.89"/>
    <rect class="cls-10" x="75.59" y="177.09" width="79.24" height="82.15"/>
    <rect class="cls-10" x="223.97" y="210.12" width="80.43" height="49.12"/>
    <polygon class="cls-11" points="130.79 161.86 151.85 177.09 75.59 177.09 96.54 161.95 130.79 161.86"/>
    <polygon class="cls-11" points="207.03 105.1 228.12 120.34 151.85 120.34 172.81 105.19 172.82 105.19 207.03 105.1"/>
    <polygon class="cls-11" points="283.31 194.87 304.4 210.11 228.14 210.11 249.09 194.97 283.31 194.87"/>
    <path class="cls-4" d="m186.75,144.71c1.1-1.13,2.25-2.03,3.62-2.81l-1.81-1.04c.31,5.57.43,11.14.37,16.71-.02,1.54,2.38,1.55,2.4,0,.06-5.58-.07-11.15-.37-16.71-.05-.9-.98-1.51-1.81-1.04-1.55.89-2.86,1.9-4.11,3.19-1.08,1.11.62,2.81,1.7,1.7h.01Z"/>
    <path class="cls-4" d="m111.64,198.61c.96-1.17,4.01-4.11,5.45-1.28.69,1.35-.08,3.84-.76,5.07-1.32,2.4-3.82,4.39-5.7,6.35-.68.71-.23,2.11.85,2.05,2.67-.14,5.24,0,7.88.46,1.51.27,2.16-2.04.64-2.31-2.84-.5-5.63-.7-8.52-.54l.85,2.05c3.63-3.78,8.21-7.48,7.15-13.32-.99-5.45-6.98-3.3-9.53-.22-.98,1.18.71,2.89,1.7,1.7h0Z"/>
    <path class="cls-4" d="m266.26,226.2l2.51-.95c1.36.22,1.63.85.82,1.88-.51,1.43-.63,1.21-1.73,2-.73.53-.84,2.02.29,2.19.79.12,1.84.07,2.55.41,1.26.62,2.2,2.32,1.19,3.63-1.46,1.9-4.24,1.7-6.21.9-1.43-.58-2.05,1.74-.64,2.31,3.51,1.43,7.87.71,9.44-3.02,1.89-4.47-2.06-5.99-5.7-6.55l.29,2.19c1.34-.96,2.68-1.42,3.24-3.11.39-1.2.29-2.91-.53-3.92-1.95-2.38-6.3-1.87-7.59.81-.67,1.39,1.4,2.6,2.07,1.21h0v.02Z"/>
  </g>
  <g>
    <g>
      <path class="cls-13" d="m202.71,117.15c-1.83-.33-3.65-.75-5.49-.96-1.45-.17-1.67-.38-1.87-1.87-.35-2.61-.87-5.19-1.29-7.79-1.24-7.7-1.96-15.44-2.12-23.24,0-.28-.04-.55-.06-.9h-21.25c-.22,2.29-.45,4.62-.66,6.95-.75,8.19-1.48,16.38-2.25,24.57-.2,2.11-.47,2.31-2.55,2.49-1.54.13-3.09.3-4.63.49-.9.11-1.4-.34-1.51-1.15-.11-.82.42-1.25,1.18-1.37.82-.13,1.66-.2,2.49-.29.79-.09,1.58-.17,2.45-.26.97-10.48,1.93-20.93,2.91-31.61-2.1.12-4.15.18-6.18.37-1.11.1-1.7-.37-1.74-1.66-.09-2.95-.22-5.91-.25-8.86-.06-5.39-.06-10.78-.09-16.17.05-.7.09-1.4.14-2.1-.08,0-.15-.01-.23-.02-.09.72-.18,1.45-.26,2.17-.48,6.57-.97,13.13-1.45,19.7-.07,1-.08,2-.22,2.98-.36,2.49-.36,4.9,1.03,7.15.42.69.24,1.48-.59,1.79-.74.28-1.42.06-1.73-.79-.07-.19-.17-.36-.34-.72-.26.61-.46,1.09-.68,1.57-.32.7-.83,1.09-1.62.78-.8-.32-1.04-.92-.74-1.74.15-.41.29-.82.49-1.37-.35.05-.59.08-.84.12-.83.16-1.46-.15-1.66-.97-.21-.86.33-1.37,1.11-1.57.84-.22,1.71-.35,2.76-.55.22-3.53.46-7.1.66-10.68.42-7.69.65-15.41,2.62-22.92.48-1.85,1.2-3.63,1.73-5.47.23-.79.27-1.63.36-2.46.78-7.14,1.53-14.29,2.35-21.42.25-2.22.55-4.44,1.03-6.62,1.66-7.54,6.33-11.67,14.01-12.51.28-.03.55-.17.82-.25,1.2,0,2.39,0,3.59,0,.2.07.4.2.6.22,5.61.48,10.65,2.42,15.1,5.9,2.22,1.73,3.69,3.91,4.22,6.72,1.63,8.64,2.74,17.35,2.71,26.16,0,2.84.22,5.58,1.01,8.33,2.06,7.2,2.28,14.64,2.55,22.06.12,3.42.33,6.84.5,10.18.22.69,3.32.06,3.55,1.17,0,.16.15,1-.38,1.41-.83.37-2-.08-2.41.47-.5.7.92,2.24-.73,2.66-1.83.46-1.43-1.42-2-2.4-.4.38-.71.68-1.03.96-.59.52-1.23.62-1.81.05-.61-.6-.56-1.3.03-1.9.44-.45.91-.91,1.45-1.23.68-.41.86-.9.79-1.68-.2-2.42-.3-4.85-.46-7.28-.41-5.92-.83-11.84-1.24-17.77-.09-.56-.18-1.11-.27-1.67-.07,0-.13.02-.2.02.05.55.1,1.09.15,1.64-.12,3.59-.33,7.18-.35,10.78-.02,4.38.04,8.77.2,13.16.07,1.86-.66,3.12-2.23,3.85-.79.37-1.75.47-2.65.51-1.57.08-3.15.02-4.79.02.23,10.68,1.38,21.04,3.41,31.13,1.82.37,3.46.69,5.09,1.03.84.17,1.57.54,1.5,1.55-.08,1.08-.93,1.14-1.77,1.12Zm-.97-60.12c.17-6.62.42-13.09.47-19.55.06-7.86-1.14-15.61-2.42-23.34-.49-2.95-1.99-5.19-4.44-6.8-5.04-3.31-10.56-5.06-16.61-4.63-4.87.35-9.11,2.12-11.15,6.94-1.06,2.5-1.7,5.25-2.09,7.94-1.5,10.36-2.77,20.75-2.98,31.24-.06,3.07,0,6.14,0,9.29,12.95-1.03,26.02-1.5,39.23-1.08Zm-39.14,22.72h3.26c8.48,0,16.96,0,25.44,0,2.75,0,5.49.02,8.24,0,1.49-.01,1.99-.54,1.96-1.77-.1-3.71-.22-7.42-.21-11.13,0-2.39.25-4.77.39-7.27-13.2-.34-26.28-.05-39.45,1.13.12,6.43.25,12.72.37,19.05Z"/>
      <path class="cls-16" d="m201.74,57.03c-13.21-.42-26.28.05-39.23,1.08,0-3.15-.05-6.22,0-9.29.2-10.49,1.47-20.88,2.98-31.24.39-2.7,1.03-5.44,2.09-7.94,2.04-4.82,6.28-6.59,11.15-6.94,6.05-.43,11.57,1.33,16.61,4.63,2.45,1.61,3.95,3.85,4.44,6.8,1.28,7.73,2.48,15.48,2.42,23.34-.05,6.46-.3,12.93-.47,19.55Z"/>
      <path class="cls-16" d="m162.6,79.75c-.12-6.34-.24-12.63-.37-19.05,13.17-1.17,26.25-1.47,39.45-1.13-.14,2.5-.38,4.89-.39,7.27-.02,3.71.11,7.42.21,11.13.03,1.23-.46,1.75-1.96,1.77-2.75.03-5.49,0-8.24,0-8.48,0-16.96,0-25.44,0h-3.26Z"/>
    </g>
    <path class="cls-12" d="m169.64,31.88c8.28,5.88,17.88,5.77,26.48.25,1.3-.83.09-2.91-1.21-2.07-3.66,2.35-7.62,3.63-11.98,3.91-4.8.31-8.27-1.46-12.08-4.16-1.26-.9-2.46,1.18-1.21,2.07h0Z"/>
    <path class="cls-12" d="m175.39,23.67c1.54,0,1.55-2.4,0-2.4s-1.55,2.4,0,2.4h0Z"/>
    <path class="cls-12" d="m187.51,23.76c1.54,0,1.55-2.4,0-2.4s-1.55,2.4,0,2.4h0Z"/>
    <path class="cls-12" d="m170.97,17.59c1.31-.82,2.53-1.21,4.07-.77s2.12-1.89.64-2.31c-2.12-.61-4.09-.14-5.92,1.01-1.31.82-.1,2.89,1.21,2.07h0Z"/>
    <path class="cls-12" d="m188.07,17.59c1.02-.23,2.09-.36,2.93.34,1.18.97,2.89-.71,1.7-1.7-1.58-1.3-3.31-1.4-5.27-.95-1.51.34-.87,2.66.64,2.31h0Z"/>
  </g>
  <g>
    <path class="cls-5" d="m217.16,115.18c-2.32-.29-3.2-1.06-6.43-1.61.42-1.93.82-3.75,1.26-5.77,4.54.58,9.02,1.15,13.58,1.74-.02,1.6.38,4.83.36,6.43l-8.77-.79Z"/>
    <g>
      <path class="cls-14" d="m226.67,118.5c1.16-.14,1.41-1.2,1.43-2.4.02-2.23,0-4.47.04-6.7.02-1.2-.59-1.75-1.63-2.2-1-.43-2-.99-2.79-1.72-1.34-1.23-1.67-5.17-.45-6.36,2.12-2.06,4.92-5.31,7.58-6.7,3.19-1.68,5.17-2.75,6.7-6.07,1-2.16.28-3.34-2.06-3.65-.94-.12-1.88-.27-2.8-.41q.18-2.18-1.75-3.02c-3.35-1.45-6.89-1.87-10.49-2.01-2.35-.09-4.71-.16-7.06-.24-.14,0-.16.03-.23.05-.82.52.09,1.82-.82,2.2-1.36,0-2.46-.15-3.57-.16-2.04-.03-2.78.76-2.7,2.85.11,2.99,1.57,5.43,3.67,7.29,2.54,2.25,4.49,4.83,6.14,7.76.72,1.28.97,2.48.76,3.84-.39,2.55-2.01,4.09-4.55,4.39-1.93.23-2.18.45-2.63,2.4-.39,1.71-.76,3.42-1.15,5.13-.46,2.03-.02,2.82,2.03,3.23,2.88.58,5.78,1.08,8.67,1.61l7.68.84Zm-14.6-30.42c-1.72-1.88-3.36-3.63-3.49-6.37,1.26.07,2.39.13,3.57.2-.03,2.04-.05,4.01-.08,6.17Zm-1.33,25.49c.42-1.93.82-3.75,1.26-5.77,4.54.58,9.02,1.15,13.58,1.74-.02,1.6-.03,4.44-.05,6.04m1.27-23.1c-.44.72-1.22,1.24-1.87,1.83-.29.27-.63.49-.97.7-4.61,2.9-4.5,7.63-2.97,11.36-1.36-.18-2.62-.34-3.84-.51.56-1.09,1.25-2.13,1.65-3.27.84-2.41.75-4.72-.84-6.93-1.62-2.25-2.87-4.76-3.16-7.55-.22-2.17-.07-4.38-.07-6.57,0-.59.06-1.18.09-1.84,5.14.23,10.31-.12,15.31,2-.59,3.78-1.31,7.49-3.32,10.78Zm3.98-2.16c.55-2.03,1-3.7,1.47-5.47.94.15,1.9.3,2.96.46-.97,2.05-2.42,3.53-4.43,5Z"/>
      <path class="cls-5" d="m220.98,106.36c-1.36-.18-2.62-.34-3.84-.51.56-1.09,1.25-2.13,1.65-3.27.84-2.41.75-4.72-.84-6.93-1.62-2.25-2.87-4.76-3.16-7.55-.22-2.17-.07-4.38-.07-6.57,0-.59.06-1.18.09-1.84,5.14.23,10.31-.12,15.31,2-.59,3.78-1.31,7.49-3.32,10.78-.44.72-1.22,1.24-1.87,1.83-.29.27-.63.49-.97.7-4.61,2.9-4.5,7.63-2.97,11.36Z"/>
    </g>
  </g>
  <g>
    <g>
      <g>
        <g>
          <path class="cls-8" d="m86.37,140.98c12.76-3.37,27.06-5.58,39.68-8.92-2.08-13.13-10.04-49.89-15.11-62.52-2.12-5.27-6.97-7.79-12.34-8.84-5.42-1.07-10.72-.97-15.81,1.44-4.88,2.31-7.54,6.21-7.36,11.67.15,4.61-.92,10.23-.49,14.83m27.09,1.09"/>
          <path class="cls-14" d="m138.64,67.53c-.2-.77-.72-1.12-1.54-.96-.51.1-1.02.16-1.69.27.42-.84.79-1.58,1.16-2.31.4-.8.34-1.51-.51-1.94-.81-.41-1.38,0-1.77.72-.51.94-.99,1.9-1.53,2.94-.5-.48-.9-.87-1.31-1.25-.62-.58-1.3-.53-1.86.02-.48.47-.44,1.28.02,1.78.51.56,1.08,1.06,1.68,1.64.1.22.15.52-.02.72,1.14,0,1.2.66,2.05,1.06.34-.24.78-.41,1.17-.52,1.04-.28,2.12-.4,3.16-.65.75-.18,1.2-.7.98-1.52Z"/>
          <path class="cls-14" d="m144.11,158.55c-2.23.96-4.46,1.88-6.68,2.82-5.92-8.7-10.46-18.13-17.18-26.24,1.34-.36,2.71-.68,4.05-1.08,2.3-.67,3.56-2.87,2.79-5.04-1.83-5.13-2.7-10.48-3.64-15.82-.45-2.57-1.07-5.11-1.53-7.67l-.81-3.53c-.39-2.25-.75-4.4-1.13-6.54-1.58-9.02-4.5-17.62-7.96-26.06-1.02-2.49-1.93-5.04-3.85-7.01-2.75-2.83-6.36-3.85-10.06-4.65-.67-.14-2.03-.33-2.82-.39-2.04-.14-2.76-.12-4.78.04-.92.07-1.97.23-2.76.35-10.06,1.58-15.72,8.64-14.82,18.56.86,9.54,1.61,19.09,3.51,28.86-.43-.47-.66-.67-.83-.91-4.98-6.95-9.29-14.29-12.9-22.05-.2-.42-.16-1.08,0-1.53.48-1.31.65-1.54,1.18-2.83.32-.78.47-1.92-.46-2.28-.84-.32-1.57.41-1.9,1.31-.36.96-.36.79-.82,1.86-.79-.88-1.13-.95-1.84-1.75-.6-.67-1.23-1.18-2.02-.55-.66.52-.57,1.45.19,2.28.57.62.72.62,1.51,1.5-1.46,0-1.65-.09-2.71.01l-.6.12c-1.47.49-1.28,2.6.01,2.51,0,0,.55-.01.56-.01,1.39-.12,2.04-.16,3.43-.12.44.01.96.37,1.15.77,4.53,9.51,10.01,18.43,16.45,26.75.32.41.69,1.17.81,1.68,2.42,10.02,4.27,16.37,6.68,26.39.22,1.35,1.87,3.91,4.82,3.7,2.46-.19,1.82-.07,3.8-.58,0,2.78,0,5.39,0,8.01-.02,6.08-.07,12.15-.06,18.23l2.63,1.45c.05-5.16,0-10.31,0-15.47,0-4.22,0-8.44,0-12.76,2.41-.58,4.72-1.14,7.04-1.69,4.35-1.02,8.71-1.98,13.04-3.05,1.02-.25,1.79-.15,2.42.68,1.97,2.57,4.09,5.05,5.84,7.76,3.73,5.79,7.27,11.71,10.88,17.58,1.4,2.28,1.41,2.33,3.96,1.4,2.2-.81,4.36-1.77,6.54-2.64.93-.37,1.41-1.02.94-1.97-.46-.93-1.27-.73-2.07-.38Zm-62.6-40.6c-2.21-10.02-3.99-20.11-4.94-30.33-.43-4.6-.94-9.21-1.09-13.82-.18-5.46,2.48-9.36,7.36-11.67,5.08-2.4,10.38-2.5,15.81-1.44,5.37,1.05,8.85,3.95,10.96,9.22,5.08,12.63,8.15,25.75,10.22,38.88-12.62,3.33-25.34,6.69-38.1,10.06-.03-.14-.14-.52-.22-.91Zm13.58,20.53c-2.66.63-6.32,1.75-7.63.82-1.75-1.13-3.6-11.32-5.16-17.54,12.63-4.12,25.3-7.48,38.25-10.13.09.45.19.83.26,1.22.94,5.75,1.86,11.5,3.76,17.04.13.39-.03,1.18-.32,1.36-.66.43-1.47.67-2.25.86-8.96,2.14-17.93,4.25-26.9,6.37Z"/>
        </g>
        <path class="cls-12" d="m98.08,81.51c1.54,0,1.55-2.4,0-2.4s-1.55,2.4,0,2.4h0Z"/>
        <path class="cls-12" d="m87.36,82.58c1.54,0,1.55-2.4,0-2.4s-1.55,2.4,0,2.4h0Z"/>
        <path class="cls-1" d="m99.39,70.55c-1.19-.03-2.38-.02-3.57.04-1.54.07-1.55,2.47,0,2.4,1.19-.06,2.38-.07,3.57-.04,1.54.04,1.54-2.36,0-2.4h0Z"/>
        <path class="cls-1" d="m85.09,72.19c-1.15.3-2.18.84-3.28,1.25-.61.23-1.02.81-.84,1.48.16.58.87,1.07,1.48.84,1.1-.41,2.13-.94,3.28-1.25,1.49-.39.86-2.71-.64-2.31h0Z"/>
        <g>
          <path class="cls-7" d="m106.73,87.78c.39,2.85-.15,5.82-1.51,8.35-.33.61-.71,1.21-1.23,1.67-1.18,1.07-2.87,1.31-4.44,1.5-1.42.17-2.86.32-4.27.1-.82-.13-1.62-.39-2.41-.66-1.89-.64-3.78-1.33-5.48-2.38-1.7-1.05-3.21-2.48-4.06-4.3,1.28.15,2.45.79,3.69,1.17,1.59.5,3.28.57,4.94.57,2.41,0,4.87-.18,7.12-1.06,1.6-.63,3.04-1.61,4.41-2.65,1.02-.78,2.01-1.61,2.96-2.47"/>
          <path class="cls-1" d="m105.53,87.78c.48,5.81-1.78,10.52-8.12,10.5-4.88-.01-10.54-2.54-13.04-6.83l-1.36,1.76c4.72,1.08,8.62,2.38,13.61,1.44,4.24-.8,7.52-3.4,10.68-6.19,1.16-1.03-.54-2.72-1.7-1.7-3.22,2.85-6.32,5.24-10.74,5.71-3.99.43-7.4-.71-11.21-1.58-1-.23-1.9.83-1.36,1.76,3.36,5.77,10.95,8.64,17.41,7.81s8.73-6.5,8.23-12.7c-.13-1.53-2.53-1.54-2.4,0h0Z"/>
        </g>
      </g>
      <path class="cls-14" d="m92.89,167.03c.03,1.49.15,3.19-.1,4.64l.92-.92c-1.17.47-2.56.61-3.79.88-1.44.32-2.91.72-4.39.76-1.7.05-1.7,2.69,0,2.64,2.67-.07,5.45-.87,8.04-1.5,1.39-.33,1.83-.88,1.92-2.36.08-1.37.07-2.78.04-4.15-.04-1.7-2.68-1.7-2.64,0h0Z"/>
    </g>
    <path class="cls-17" d="m120.28,99.52c4.63-9.9,9.16-19.86,13.36-29.96.59-1.42-1.73-2.05-2.31-.64-4.12,9.9-8.57,19.67-13.12,29.38-.65,1.39,1.42,2.61,2.07,1.21h0Z"/>
  </g>
  <g>
    <path class="cls-2" d="m247.93,168.98c0-6.37,0-13.57,0-20,12.88-1.15,26.28-1.32,39.54-.99-.1,1.8-.6,4.3-.6,6-.01,4.35.02,8.7.1,13.05.02,1.26-.39,1.84-1.66,1.94-.12,0-.24,0-.36,0-12.05.02-24.1.04-36.15.06-.2,0-.39-.03-.87-.06Z"/>
    <path class="cls-14" d="m277.38,171.26l8.11-.08c2.69-.06,3.86-1.96,3.82-4.64-.03-1.83-.14-3.64-.1-5.47.17-7.79.42-15.57.69-23.35l.2-3.97c.07-1.49.18-2.96.2-4.44.1-8.74-.99-17.37-2.4-25.97-.56-3.41-1.86-6.3-4.69-8.43-5.46-4.1-11.58-6.13-18.39-5.83-8.76.38-14.51,4.7-15.85,13.58-1.19,7.85-1.99,15.76-2.94,23.64-.19,1.55-.25,3.12-.37,4.68l-.33,6.97c-.02,2.99-.21,5.99-.17,8.98.09,7.67.62,12.53.78,20.2.08,1.92,1.34,3.66,3,3.96,2.09.37,2.61.31,4.85.31l23.61-.13Zm9.49-17.62c-.01,4.35-.34,8.34-.26,12.69.02,1.26-.03,2.2-1.3,2.3-.12,0-.24,0-.36,0-12.05.02-22.62.35-34.66.05-2.35-.06-2.15-2.07-2.35-3.05v-16.07c12.88-1.15,25.95-1.45,39.22-1.13-.1,1.8-.28,3.5-.28,5.2Zm.41-11.82c-.04,1.31,0,2.63,0,4.12-13.28-.38-26.37,0-39.38,1.09,0-3.08-.18-6.12.03-9.13.57-8,1.21-16,2.01-23.98.4-4.01.94-8.03,1.83-11.95,1.46-6.42,5.17-9.6,11.73-10.29,6.59-.69,12.52,1.24,17.9,5,2.24,1.57,3.42,3.8,3.88,6.49,1.39,8.04,2.47,16.11,2.47,24.28,0,4.79-.31,9.58-.47,14.36Z"/>
    <path class="cls-2" d="m287.34,145.94c-13.28-.38-26.83.82-39.83,1.9,0-3.08.28-6.93.49-9.95.57-8,1.21-16,2.01-23.98.4-4.01.94-8.03,1.83-11.95,1.46-6.42,5.17-9.6,11.73-10.29,6.59-.69,12.52,1.24,17.9,5,2.24,1.57,3.42,3.8,3.88,6.49,1.39,8.04,2.47,16.11,2.47,24.28,0,4.79-.31,9.58-.47,14.36-.04,1.31,0,2.63,0,4.12Z"/>
    <path class="cls-12" d="m260.8,113.91c1.54,0,1.55-2.4,0-2.4s-1.55,2.4,0,2.4h0Z"/>
    <path class="cls-12" d="m275.91,113.91c1.54,0,1.55-2.4,0-2.4s-1.55,2.4,0,2.4h0Z"/>
    <path class="cls-12" d="m257.81,108.81c1.59-.49,3.2-.93,4.82-1.33,1.5-.36.86-2.68-.64-2.31-1.62.39-3.23.84-4.82,1.33-1.47.45-.84,2.77.64,2.31h0Z"/>
    <path class="cls-12" d="m273.71,107.71c1.67.17,3.32.49,4.94.92,1.49.4,2.13-1.92.64-2.31-1.83-.49-3.69-.81-5.58-1.01-1.53-.16-1.52,2.24,0,2.4h0Z"/>
    <path class="cls-14" d="m254.94,170.28c-2.03,10.24-2.18,20.72-4.21,30.95-.3,1.51,2.01,2.15,2.31.64,2.03-10.24,2.18-20.72,4.21-30.95.3-1.51-2.01-2.15-2.31-.64h0Z"/>
    <path class="cls-14" d="m245.69,203.65c2.16-.23,4.37-.33,6.49-.84,1.5-.36.87-2.68-.64-2.31-1.9.46-3.9.55-5.85.76-1.52.16-1.54,2.56,0,2.4h0Z"/>
    <path class="cls-14" d="m276.96,170.36c1.89,10.73,1.94,21.69,3.11,32.5.16,1.52,2.57,1.54,2.4,0-1.19-11.02-1.27-22.2-3.19-33.14-.27-1.52-2.58-.87-2.31.64h0Z"/>
    <path class="cls-14" d="m280.92,204.13c2.53.43,5.07.86,7.6,1.29,1.51.26,2.16-2.06.64-2.31l-7.6-1.29c-1.51-.26-2.16,2.06-.64,2.31h0Z"/>
    <path class="cls-12" d="m288.73,143.13c8.68-1.94,9.27-11.16,6.48-18.24-3.11-7.89-9.52-12.43-17.78-13.38-1.53-.18-1.52,2.23,0,2.4,6.15.7,11.2,3.63,14.27,9.16s4.89,15.83-3.61,17.73c-1.51.34-.87,2.65.64,2.31h0Z"/>
    <path class="cls-12" d="m247.52,141.27c-10.1-8.2,4.07-23.48,12.19-26.71,1.42-.57.8-2.89-.64-2.31-6.96,2.77-11.64,7.45-14.93,14.23-2.66,5.5-3.55,12.24,1.68,16.49,1.19.97,2.9-.72,1.7-1.7h0Z"/>
    <path class="cls-14" d="m258.42,127.38c6.67-2.62,13.62-3.51,20.51-1.19,1.47.49,2.1-1.82.64-2.31-7.23-2.43-14.77-1.56-21.79,1.19-1.42.56-.8,2.88.64,2.31h0Z"/>
    <path class="cls-12" d="m260.26,114.02c-.06.1.07-.08.1-.11.08-.08.16-.15.24-.22.21-.21.38-.45.56-.68.26-.36.57-.6.94-.85.54-.36.77-1.06.43-1.64-.31-.53-1.1-.8-1.64-.43-.61.42-1.18.85-1.62,1.45-.33.45-.78.8-1.08,1.28-.82,1.31,1.25,2.52,2.07,1.21h0Z"/>
    <path class="cls-12" d="m259.01,114.69c1.24.22,2.49.4,3.75.54.65.07,1.2-.6,1.2-1.2,0-.71-.55-1.13-1.2-1.2-1.04-.11-2.08-.27-3.11-.45-.64-.11-1.29.17-1.48.84-.16.58.2,1.36.84,1.48h0Z"/>
    <path class="cls-12" d="m258.28,113.86c.06,1.02.37,1.9.81,2.81.28.58,1.11.74,1.64.43.6-.35.71-1.06.43-1.64-.25-.52-.45-1.06-.48-1.6-.04-.65-.52-1.2-1.2-1.2-.62,0-1.24.55-1.2,1.2h0Z"/>
    <path class="cls-12" d="m278.63,112.38c-.21-.7-.38-1.41-.51-2.12-.12-.64-.89-1-1.48-.84-.67.18-.96.84-.84,1.48.14.72.31,1.42.51,2.12.18.62.84,1.01,1.48.84s1.02-.85.84-1.48h0Z"/>
    <path class="cls-12" d="m277.5,111.51c-1.08-.04-2.16,0-3.24.11-.64.06-1.2.51-1.2,1.2,0,.6.55,1.26,1.2,1.2,1.08-.11,2.16-.14,3.24-.11,1.54.05,1.54-2.35,0-2.4h0Z"/>
    <path class="cls-12" d="m276.25,112.04c-.32.51-.64,1.02-.96,1.53-.25.4-.64.66-.93,1.05-.39.52-.08,1.34.43,1.64.61.36,1.25.09,1.64-.43,0,0,.29-.2.37-.29.22-.23.39-.5.56-.76.32-.51.64-1.02.96-1.53.82-1.31-1.25-2.52-2.07-1.21h0Z"/>
  </g>
  <g>
    <g>
      <path class="cls-6" d="m50.2,195.98c-.02-.76-.03-1.53-.04-2.28s-.02-1.51-.03-2.27-.03-1.5-.06-2.25-.08-1.49-.14-2.24c-.2-2.33-.41-4.66-.62-6.98s-.43-4.65-.65-6.98c-.22-2.33-.45-4.65-.68-6.98-.23-2.33-.47-4.65-.72-6.97-.07-.7-.19-1.4-.36-2.08s-.38-1.34-.65-1.99-.59-1.27-.96-1.86-.8-1.17-1.29-1.71c-.66-.74-1.37-1.36-2.13-1.88s-1.56-.94-2.39-1.28-1.71-.59-2.61-.77-1.83-.29-2.77-.35c-1.42-.09-2.8-.05-4.16.09s-2.69.39-4,.74-2.59.8-3.85,1.34-2.5,1.17-3.72,1.88c-.81.47-1.51,1-2.11,1.59s-1.11,1.24-1.54,1.94-.78,1.46-1.06,2.27-.5,1.67-.66,2.58c-.37,2.03-.72,4.06-1.04,6.09s-.62,4.07-.87,6.11c-.25,2.04-.46,4.08-.61,6.13s-.24,4.11-.26,6.17c-.01,1.42,0,2.85,0,4.27s.04,2.85.07,4.28.07,2.87.1,4.31.07,2.89.09,4.34c3.3,0,6.59.03,9.89.1,3.3.07,6.59.18,9.9.33s6.6.35,9.91.61c3.31.25,6.62.56,9.94.92l.02-1.14.02-1.1.02-1.07.02-1.06v-2.84Z"/>
      <g>
        <path class="cls-6" d="m10.51,203.62c.07,4.47.18,8.63.18,12.79,0,1.84-.19,3.68-.38,5.52-.16,1.53.3,2.14,1.85,2.18,1.64.04,3.29.07,4.93.1,10.47.21,20.95.42,31.42.64.23,0,.47,0,1.05.02.05-2.38.07-4.69.15-7,.12-3.73.25-7.46.41-11.18.03-.78-.21-1.05-.99-1.1-10.2-.59-20.4-1.22-30.6-1.8-2.63-.15-5.28-.12-8.02-.18Z"/>
        <path class="cls-14" d="m42.84,227.24c2.62.18,4.07.15,6.42.17,1.7.01,2.8-1.37,2.88-2.65.16-2.56.04-3.72.12-6.29.19-6.86.45-13.73.48-20.59.04-10.44-.48-20.86-1.89-31.21-.43-3.18-.66-6.39-1.31-9.52-1.47-7.15-6.59-11.39-15.27-12.62l-2.53-.05c-1.44.16-3.63.39-4.82.62-3.95.77-7.54,2.35-10.88,4.6-3.25,2.19-4.78,5.28-5.48,9.07-1.77,9.53-3.07,19.09-2.84,28.82.01.52.04,1.04.06,1.56.02.51.05,1.02.09,1.76l.08,4.16c.04,7.95.06,15.89.04,23.84,0,1.16-.25,2.31-.33,3.47-.15,2.33,1.33,4.1,3.7,4.27,2.2.16,4.41.16,6.62.23l24.86.38Zm7.38-28.42l-.04,2.14-.05,2.24c-6.64-.73-13.25-1.22-19.85-1.53-6.6-.31-13.19-.43-19.78-.44-.05-2.91-.13-5.78-.19-8.65-.06-2.86-.1-5.71-.08-8.55.04-4.13.36-8.22.86-12.3.5-4.08,1.17-8.14,1.9-12.2.33-1.82.86-3.44,1.72-4.85.86-1.41,2.04-2.59,3.66-3.54,2.43-1.42,4.95-2.51,7.57-3.21,2.62-.7,5.33-1,8.17-.83,1.89.12,3.71.45,5.38,1.12,1.67.67,3.2,1.68,4.52,3.16.97,1.09,1.71,2.29,2.25,3.58.54,1.29.86,2.65,1.01,4.06.49,4.65.95,9.3,1.4,13.95.44,4.65.86,9.31,1.27,13.96.13,1.49.18,2.98.2,4.49s.03,3.02.07,4.55m-33.11,28.24c-1.64-.03-3.29-.06-4.93-.1-1.56-.04-2.01-.65-1.85-2.18.19-1.83.38-3.68.38-5.52,0-4.16-.11-8.32-.18-12.79,2.74.06,5.39.03,8.02.18,10.2.57,20.4,1.21,30.6,1.8.78.04,1.02.32.99,1.1-.17,3.73-.3,7.45-.41,11.18-.07,2.31-.13,3.71-.18,6.09.05.71-.78.89-1.02.89-10.47-.21-20.95-.42-31.42-.64Z"/>
        <path class="cls-15" d="m31.21,144.44l3.37.07-3.37-.07Z"/>
      </g>
      <path class="cls-13" d="m20.05,163.41c.9.11,1.73.19,2.55.34.79.14,1.17.66,1.04,1.47-.14.83-.7,1.09-1.48,1.03-1.11-.09-2.22-.22-3.33-.27-.91-.04-1.6-.32-1.6-1.35,0-1,.74-1.22,1.57-1.24.44,0,.88.01,1.25.02Z"/>
      <path class="cls-3" d="m37.07,167.35c-.6-.01-1.2-.03-1.8-.03-.84,0-1.29-.49-1.28-1.26,0-.78.52-1.23,1.32-1.23,1.24,0,2.47.02,3.71.08.81.04,1.22.55,1.2,1.34-.02.77-.49,1.14-1.25,1.14-.64,0-1.28-.02-1.91-.03Z"/>
    </g>
    <path class="cls-14" d="m8,188.1c-3.77,5.99-7.23,11.08-7.93,18.3s3.62,10.26,7.52,15.28c.94,1.22,2.63-.49,1.7-1.7-1.45-1.88-3.19-3.52-4.59-5.43-2.61-3.54-2.51-7.13-1.65-11.33,1.09-5.27,4.21-9.44,7.03-13.91.83-1.31-1.25-2.52-2.07-1.21h0Z"/>
    <path class="cls-14" d="m50.46,191.85c2.7,4.28,4.71,8.88,6.46,13.62.79,2.15,2.11,5.06,1.9,7.36-.36,3.99-4.11,5.56-6.91,7.33-1.3.83-.1,2.9,1.21,2.07,4.96-3.15,8.81-4.76,7.88-11.32s-4.8-14.47-8.47-20.28c-.82-1.3-2.9-.1-2.07,1.21h0Z"/>
    <path class="cls-14" d="m17.32,226.17c-1.28,9.23-2.9,18.39-4.88,27.49-.33,1.51,1.99,2.15,2.31.64,1.97-9.1,3.6-18.26,4.88-27.49.21-1.51-2.1-2.16-2.31-.64h0Z"/>
    <path class="cls-14" d="m38.08,227.18c2.08,9.19,4.49,18.18,6.87,27.27.39,1.49,2.71.86,2.31-.64-2.38-9.09-4.79-18.09-6.87-27.27-.34-1.51-2.66-.87-2.31.64h0Z"/>
    <path class="cls-14" d="m46.04,255.34c2.16.43,4.35.72,6.53,1.04,1.51.22,2.16-2.09.64-2.31-2.18-.32-4.37-.61-6.53-1.04-1.51-.3-2.15,2.01-.64,2.31h0Z"/>
    <path class="cls-14" d="m13.23,253.03c-2.29.86-4.78,1.17-7,2.21-1.4.66-.18,2.73,1.21,2.07,2-.94,4.34-1.19,6.42-1.97,1.43-.54.81-2.86-.64-2.31h0Z"/>
  </g>
  <g>
    <path class="cls-9" d="m22.52,171.06c1.93,0,1.93-3,0-3s-1.93,3,0,3h0Z"/>
    <path class="cls-9" d="m36.07,172.82c1.93,0,1.93-3,0-3s-1.93,3,0,3h0Z"/>
    <path class="cls-14" d="m17.09,185.16c8.1-1.95,16.31-3.71,24.36-.63,1.44.55,2.07-1.77.64-2.31-8.42-3.23-17.15-1.41-25.63.63-1.5.36-.87,2.68.64,2.31h0Z"/>
  </g>
</svg>