<?xml version="1.0" encoding="UTF-8"?>
<svg id="Lag_1" data-name="Lag 1" xmlns="http://www.w3.org/2000/svg" viewBox="0 0 305.65 259.24">
  <defs>
    <style>
      .cls-1 {
        fill: #050506;
      }

      .cls-1, .cls-2, .cls-3, .cls-4, .cls-5, .cls-6, .cls-7, .cls-8, .cls-9, .cls-10, .cls-11, .cls-12, .cls-13, .cls-14, .cls-15, .cls-16 {
        stroke-width: 0px;
      }

      .cls-2 {
        fill: #ce635d;
      }

      .cls-3 {
        fill: #040404;
      }

      .cls-4 {
        fill: #010101;
      }

      .cls-5 {
        fill: #edeeed;
      }

      .cls-6 {
        fill: #5599ca;
      }

      .cls-7 {
        fill: #fff;
      }

      .cls-8 {
        fill: #f4aab2;
      }

      .cls-9 {
        fill: #0c0c0c;
      }

      .cls-10 {
        fill: #c7c6c6;
      }

      .cls-11 {
        fill: #878787;
      }

      .cls-12 {
        fill: #1e1e1c;
      }

      .cls-13 {
        fill: #070708;
      }

      .cls-14 {
        fill: #050606;
      }

      .cls-15 {
        fill: #444;
      }

      .cls-16 {
        fill: #6abc8b;
      }
    </style>
  </defs>
  <g>
    <rect class="cls-10" x="151.62" y="120.35" width="76.27" height="138.89"/>
    <rect class="cls-10" x="75.35" y="177.09" width="79.24" height="82.15"/>
    <rect class="cls-10" x="223.73" y="210.12" width="80.43" height="49.12"/>
    <polygon class="cls-11" points="130.55 161.86 151.61 177.09 75.35 177.09 96.3 161.95 130.55 161.86"/>
    <polygon class="cls-11" points="206.79 105.1 227.88 120.34 151.61 120.34 172.57 105.19 172.58 105.19 206.79 105.1"/>
    <polygon class="cls-11" points="283.07 194.87 304.16 210.11 227.9 210.11 248.85 194.97 283.07 194.87"/>
    <path class="cls-4" d="m186.51,144.71c1.1-1.13,2.25-2.03,3.62-2.81l-1.81-1.04c.31,5.57.43,11.14.37,16.71-.02,1.54,2.38,1.55,2.4,0,.06-5.58-.07-11.15-.37-16.71-.05-.9-.98-1.51-1.81-1.04-1.55.89-2.86,1.9-4.11,3.19-1.08,1.11.62,2.81,1.7,1.7h.01Z"/>
    <path class="cls-4" d="m111.4,198.61c.96-1.17,4.01-4.11,5.45-1.28.69,1.35-.08,3.84-.76,5.07-1.32,2.4-3.82,4.39-5.7,6.35-.68.71-.23,2.11.85,2.05,2.67-.14,5.24,0,7.88.46,1.51.27,2.16-2.04.64-2.31-2.84-.5-5.63-.7-8.52-.54l.85,2.05c3.63-3.78,8.21-7.48,7.15-13.32-.99-5.45-6.98-3.3-9.53-.22-.98,1.18.71,2.89,1.7,1.7h0Z"/>
    <path class="cls-4" d="m266.02,226.2l2.51-.95c1.36.22,1.63.85.82,1.88-.51,1.43-.63,1.21-1.73,2-.73.53-.84,2.02.29,2.19.79.12,1.84.07,2.55.41,1.26.62,2.2,2.32,1.19,3.63-1.46,1.9-4.24,1.7-6.21.9-1.43-.58-2.05,1.74-.64,2.31,3.51,1.43,7.87.71,9.44-3.02,1.89-4.47-2.06-5.99-5.7-6.55l.29,2.19c1.34-.96,2.68-1.42,3.24-3.11.39-1.2.29-2.91-.53-3.92-1.95-2.38-6.3-1.87-7.59.81-.67,1.39,1.4,2.6,2.07,1.21h0v.02Z"/>
  </g>
  <g>
    <g>
      <path class="cls-13" d="m202.46,117.15c-1.83-.33-3.65-.75-5.49-.96-1.45-.17-1.67-.38-1.87-1.87-.35-2.61-.87-5.19-1.29-7.79-1.24-7.7-1.96-15.44-2.12-23.24,0-.28-.04-.55-.06-.9h-21.25c-.22,2.29-.45,4.62-.66,6.95-.75,8.19-1.48,16.38-2.25,24.57-.2,2.11-.47,2.31-2.55,2.49-1.54.13-3.09.3-4.63.49-.9.11-1.4-.34-1.51-1.15-.11-.82.42-1.25,1.18-1.37.82-.13,1.66-.2,2.49-.29.79-.09,1.58-.17,2.45-.26.97-10.48,1.93-20.93,2.91-31.61-2.1.12-4.15.18-6.18.37-1.11.1-1.7-.37-1.74-1.66-.09-2.95-.22-5.91-.25-8.86-.06-5.39-.06-10.78-.09-16.17.05-.7.09-1.4.14-2.1-.08,0-.15-.01-.23-.02-.09.72-.18,1.45-.26,2.17-.48,6.57-.97,13.13-1.45,19.7-.07,1-.08,2-.22,2.98-.36,2.49-.36,4.9,1.03,7.15.42.69.24,1.48-.59,1.79-.74.28-1.42.06-1.73-.79-.07-.19-.17-.36-.34-.72-.26.61-.46,1.09-.68,1.57-.32.7-.83,1.09-1.62.78-.8-.32-1.04-.92-.74-1.74.15-.41.29-.82.49-1.37-.35.05-.59.08-.84.12-.83.16-1.46-.15-1.66-.97-.21-.86.33-1.37,1.11-1.57.84-.22,1.71-.35,2.76-.55.22-3.53.46-7.1.66-10.68.42-7.69.65-15.41,2.62-22.92.48-1.85,1.2-3.63,1.73-5.47.23-.79.27-1.63.36-2.46.78-7.14,1.53-14.29,2.35-21.42.25-2.22.55-4.44,1.03-6.62,1.66-7.54,6.33-11.67,14.01-12.51.28-.03.55-.17.82-.25,1.2,0,2.39,0,3.59,0,.2.07.4.2.6.22,5.61.48,10.65,2.42,15.1,5.9,2.22,1.73,3.69,3.91,4.22,6.72,1.63,8.64,2.74,17.35,2.71,26.16,0,2.84.22,5.58,1.01,8.33,2.06,7.2,2.28,14.64,2.55,22.06.12,3.42.33,6.84.5,10.18.22.69,3.32.06,3.55,1.17,0,.16.15,1-.38,1.41-.83.37-2-.08-2.41.47-.5.7.92,2.24-.73,2.66-1.83.46-1.43-1.42-2-2.4-.4.38-.71.68-1.03.96-.59.52-1.23.62-1.81.05-.61-.6-.56-1.3.03-1.9.44-.45.91-.91,1.45-1.23.68-.41.86-.9.79-1.68-.2-2.42-.3-4.85-.46-7.28-.41-5.92-.83-11.84-1.24-17.77-.09-.56-.18-1.11-.27-1.67-.07,0-.13.02-.2.02.05.55.1,1.09.15,1.64-.12,3.59-.33,7.18-.35,10.78-.02,4.38.04,8.77.2,13.16.07,1.86-.66,3.12-2.23,3.85-.79.37-1.75.47-2.65.51-1.57.08-3.15.02-4.79.02.23,10.68,1.38,21.04,3.41,31.13,1.82.37,3.46.69,5.09,1.03.84.17,1.57.54,1.5,1.55-.08,1.08-.93,1.14-1.77,1.12Zm-.97-60.12c.17-6.62.42-13.09.47-19.55.06-7.86-1.14-15.61-2.42-23.34-.49-2.95-1.99-5.19-4.44-6.8-5.04-3.31-10.56-5.06-16.61-4.63-4.87.35-9.11,2.12-11.15,6.94-1.06,2.5-1.7,5.25-2.09,7.94-1.5,10.36-2.77,20.75-2.98,31.24-.06,3.07,0,6.14,0,9.29,12.95-1.03,26.02-1.5,39.23-1.08Zm-39.14,22.72h3.26c8.48,0,16.96,0,25.44,0,2.75,0,5.49.02,8.24,0,1.49-.01,1.99-.54,1.96-1.77-.1-3.71-.22-7.42-.21-11.13,0-2.39.25-4.77.39-7.27-13.2-.34-26.28-.05-39.45,1.13.12,6.43.25,12.72.37,19.05Z"/>
      <path class="cls-16" d="m201.49,57.03c-13.21-.42-26.28.05-39.23,1.08,0-3.15-.05-6.22,0-9.29.2-10.49,1.47-20.88,2.98-31.24.39-2.7,1.03-5.44,2.09-7.94,2.04-4.82,6.28-6.59,11.15-6.94,6.05-.43,11.57,1.33,16.61,4.63,2.45,1.61,3.95,3.85,4.44,6.8,1.28,7.73,2.48,15.48,2.42,23.34-.05,6.46-.3,12.93-.47,19.55Z"/>
      <path class="cls-16" d="m162.36,79.75c-.12-6.34-.24-12.63-.37-19.05,13.17-1.17,26.25-1.47,39.45-1.13-.14,2.5-.38,4.89-.39,7.27-.02,3.71.11,7.42.21,11.13.03,1.23-.46,1.75-1.96,1.77-2.75.03-5.49,0-8.24,0-8.48,0-16.96,0-25.44,0h-3.26Z"/>
    </g>
    <path class="cls-12" d="m169.4,31.88c8.28,5.88,17.88,5.77,26.48.25,1.3-.83.09-2.91-1.21-2.07-3.66,2.35-7.62,3.63-11.98,3.91-4.8.31-8.27-1.46-12.08-4.16-1.26-.9-2.46,1.18-1.21,2.07h0Z"/>
    <path class="cls-12" d="m175.15,23.67c1.54,0,1.55-2.4,0-2.4s-1.55,2.4,0,2.4h0Z"/>
    <path class="cls-12" d="m187.27,23.76c1.54,0,1.55-2.4,0-2.4s-1.55,2.4,0,2.4h0Z"/>
    <path class="cls-12" d="m170.73,17.59c1.31-.82,2.53-1.21,4.07-.77s2.12-1.89.64-2.31c-2.12-.61-4.09-.14-5.92,1.01-1.31.82-.1,2.89,1.21,2.07h0Z"/>
    <path class="cls-12" d="m187.82,17.59c1.02-.23,2.09-.36,2.93.34,1.18.97,2.89-.71,1.7-1.7-1.58-1.3-3.31-1.4-5.27-.95-1.51.34-.87,2.66.64,2.31h0Z"/>
  </g>
  <g>
    <path class="cls-5" d="m216.92,115.18c-2.32-.29-3.2-1.06-6.43-1.61.42-1.93.82-3.75,1.26-5.77,4.54.58,9.02,1.15,13.58,1.74-.02,1.6.38,4.83.36,6.43l-8.77-.79Z"/>
    <g>
      <path class="cls-14" d="m226.43,118.5c1.16-.14,1.41-1.2,1.43-2.4.02-2.23,0-4.47.04-6.7.02-1.2-.59-1.75-1.63-2.2-1-.43-2-.99-2.79-1.72-1.34-1.23-1.67-5.17-.45-6.36,2.12-2.06,4.92-5.31,7.58-6.7,3.19-1.68,5.17-2.75,6.7-6.07,1-2.16.28-3.34-2.06-3.65-.94-.12-1.88-.27-2.8-.41q.18-2.18-1.75-3.02c-3.35-1.45-6.89-1.87-10.49-2.01-2.35-.09-4.71-.16-7.06-.24-.14,0-.16.03-.23.05-.82.52.09,1.82-.82,2.2-1.36,0-2.46-.15-3.57-.16-2.04-.03-2.78.76-2.7,2.85.11,2.99,1.57,5.43,3.67,7.29,2.54,2.25,4.49,4.83,6.14,7.76.72,1.28.97,2.48.76,3.84-.39,2.55-2.01,4.09-4.55,4.39-1.93.23-2.18.45-2.63,2.4-.39,1.71-.76,3.42-1.15,5.13-.46,2.03-.02,2.82,2.03,3.23,2.88.58,5.78,1.08,8.67,1.61l7.68.84Zm-14.6-30.42c-1.72-1.88-3.36-3.63-3.49-6.37,1.26.07,2.39.13,3.57.2-.03,2.04-.05,4.01-.08,6.17Zm-1.33,25.49c.42-1.93.82-3.75,1.26-5.77,4.54.58,9.02,1.15,13.58,1.74-.02,1.6-.03,4.44-.05,6.04m1.27-23.1c-.44.72-1.22,1.24-1.87,1.83-.29.27-.63.49-.97.7-4.61,2.9-4.5,7.63-2.97,11.36-1.36-.18-2.62-.34-3.84-.51.56-1.09,1.25-2.13,1.65-3.27.84-2.41.75-4.72-.84-6.93-1.62-2.25-2.87-4.76-3.16-7.55-.22-2.17-.07-4.38-.07-6.57,0-.59.06-1.18.09-1.84,5.14.23,10.31-.12,15.31,2-.59,3.78-1.31,7.49-3.32,10.78Zm3.98-2.16c.55-2.03,1-3.7,1.47-5.47.94.15,1.9.3,2.96.46-.97,2.05-2.42,3.53-4.43,5Z"/>
      <path class="cls-5" d="m220.74,106.36c-1.36-.18-2.62-.34-3.84-.51.56-1.09,1.25-2.13,1.65-3.27.84-2.41.75-4.72-.84-6.93-1.62-2.25-2.87-4.76-3.16-7.55-.22-2.17-.07-4.38-.07-6.57,0-.59.06-1.18.09-1.84,5.14.23,10.31-.12,15.31,2-.59,3.78-1.31,7.49-3.32,10.78-.44.72-1.22,1.24-1.87,1.83-.29.27-.63.49-.97.7-4.61,2.9-4.5,7.63-2.97,11.36Z"/>
    </g>
  </g>
  <path class="cls-2" d="m18.92,223.95c0-6.31,0-12.53,0-18.91,12.77-1.14,25.74-1.45,38.9-1.12-.1,1.79-.27,3.47-.28,5.15-.01,4.31.02,8.63.1,12.94.02,1.25-.38,1.83-1.64,1.93-.12,0-.24,0-.36,0-11.95.02-23.9.04-35.86.06-.2,0-.39-.03-.86-.06Z"/>
  <g>
    <path class="cls-2" d="m58.01,201.42c-13.18-.37-26.16,0-39.06,1.08,0-3.05-.18-6.07.03-9.06.56-7.93,1.2-15.87,1.99-23.78.39-3.97.93-7.96,1.82-11.85,1.44-6.37,5.13-9.53,11.63-10.21,6.53-.68,12.42,1.23,17.75,4.96,2.22,1.55,3.39,3.77,3.85,6.44,1.38,7.97,2.45,15.98,2.45,24.08,0,4.75-.31,9.5-.46,14.25-.04,1.3,0,2.61,0,4.08Z"/>
    <path class="cls-14" d="m60.74,189.32c.07-1.48.18-2.94.2-4.4.09-8.67-.98-17.23-2.39-25.76-.56-3.38-1.84-6.25-4.65-8.36-5.42-4.07-11.49-6.08-18.25-5.78-8.69.38-14.39,4.66-15.72,13.47-1.18,7.79-1.98,15.63-2.92,23.45-.18,1.54-.25,3.09-.37,4.64l-.32,6.92c-.02,2.97-.21,5.94-.17,8.91.09,7.6.62,12.43.77,20.03.08,1.9,1.33,3.63,2.98,3.93,2.08.37,2.58.31,4.81.31-.63,2.8-1.16,5.51-1.86,8.18-1.4,5.39-2.92,10.74-4.31,16.13-.17.67-.39.95-1.02,1.2-2.45.97-4.88,2.01-7.28,3.11-.45.21-.96.83-.98,1.28-.02.42-.05,1.1.91,1.27.84-.01.86-.07,1.27-.24,2.78-1.1,5.52-2.22,8.27-3.39.47-.2,1.04-.77,1.09-1.21.53-4.87,2.15-9.46,3.45-14.14,1.12-4.03,2.1-8.1,3.18-12.31,5.8,0,11.9,0,18.14,0,.3,2.26.58,4.56.92,6.86.89,5.95,1.93,11.87,2.65,17.84.25,2.09,1.18,2.95,2.99,3.61l6.25,3.03c.49.2,1.23-.09,1.33-.85.1-.73-.52-1.39-.95-1.63-1.92-1.09-3.89-2.09-5.9-3.01-.76-.35-1.04-.77-1.16-1.56-.8-5.33-1.67-10.64-2.47-15.97-.41-2.73-.73-5.47-1.11-8.33l8.04-.08c2.66-.06,3.83-1.94,3.79-4.6-.03-1.82-.14-3.61-.1-5.42.17-7.72.41-15.44.68-23.16l.2-3.94Zm-3.2,19.74c-.01,4.31-.33,8.27-.26,12.59.02,1.25-.03,2.18-1.29,2.29-.12,0-.24,0-.36,0-11.95.02-22.43.36-34.38.06-2.33-.06-2.13-2.06-2.33-3.02,0-6.31,0-9.57,0-15.94,12.77-1.14,25.74-1.45,38.9-1.12-.1,1.79-.27,3.47-.28,5.15Zm.41-11.73c-.04,1.3,0,2.61,0,4.08-13.18-.37-26.16,0-39.06,1.08,0-3.05-.18-6.07.03-9.06.56-7.93,1.2-15.87,1.99-23.78.39-3.97.93-7.96,1.82-11.85,1.44-6.37,5.13-9.53,11.63-10.21,6.53-.68,12.42,1.23,17.75,4.96,2.22,1.55,3.39,3.77,3.85,6.44,1.38,7.97,2.45,15.98,2.45,24.08,0,4.75-.31,9.5-.46,14.25Z"/>
  </g>
  <path class="cls-12" d="m31.77,167.56c1.93,0,1.93-3,0-3s-1.93,3,0,3h0Z"/>
  <path class="cls-12" d="m43.49,167.88c1.93,0,1.93-3,0-3s-1.93,3,0,3h0Z"/>
  <path class="cls-12" d="m27.59,161.04c1.58-.49,3.17-.93,4.78-1.32,1.88-.46,1.08-3.35-.8-2.89-1.61.39-3.2.83-4.78,1.32-1.84.57-1.05,3.47.8,2.89h0Z"/>
  <path class="cls-12" d="m43.22,160.19c1.75.28,3.47.69,5.16,1.23,1.84.59,2.63-2.3.8-2.89-1.69-.55-3.4-.96-5.16-1.23-.81-.13-1.6.21-1.85,1.05-.2.71.25,1.72,1.05,1.85h0Z"/>
  <g>
    <path class="cls-7" d="m52.26,183.19c-.04-2.14-1.8-3.9-3.57-5.1s-3.87-1.79-5.94-2.34c-1.9-.5-3.83-.99-5.8-1.08-1.25-.06-2.51.04-3.76.17-.86.09-1.73.19-2.54.49-.64.23-1.24.58-1.82.93-.77.46-1.55.95-2.17,1.6-1.55,1.62-1.92,4.03-1.9,6.27,2.23-.96,4.67-1.32,7.09-1.51,6.84-.56,13.78.06,20.42,1.81.08-.34.13-.57.03-.93l-.06-.33Z"/>
    <path class="cls-14" d="m53.71,182.79c-1.27-7.26-11.49-9.59-17.69-9.61-7.15-.01-12.53,3.43-12.74,10.96-.03.92.99,1.77,1.9,1.45,8.33-3.01,18.3-1.78,26.72.3.96.24,1.87-.46,1.9-1.45.02-.65.02-1.06-.09-1.65-.34-1.9-3.23-1.09-2.89.8l-.02.85,1.9-1.45c-8.96-2.22-19.44-3.49-28.31-.3l1.9,1.45c.2-6.89,6.08-8.5,11.94-7.8,4.46.53,11.68,1.99,12.59,7.25.33,1.9,3.22,1.09,2.89-.8Z"/>
  </g>
  <path class="cls-14" d="m18.82,190.35c-4.01-5.93-7.4-12.59-7.01-19.96.48-8.95,6.54-14.08,14.04-17.86,1.38-.7.17-2.77-1.21-2.07-7.36,3.71-13.6,8.75-14.97,17.32-1.38,8.65,2.34,16.79,7.08,23.78.86,1.27,2.94.07,2.07-1.21h0Z"/>
  <path class="cls-14" d="m60.09,192.66c5.33-7.82,7.8-17.27,6.48-26.7-1.46-10.43-7.2-14.72-16.97-17.09-1.5-.36-2.14,1.95-.64,2.31,4.2,1.02,8.62,2.07,11.57,5.47s3.78,8.44,3.96,12.8c.34,7.93-2.03,15.47-6.48,21.98-.87,1.28,1.21,2.48,2.07,1.21h0Z"/>
  <g>
    <path class="cls-14" d="m235.97,114.36c-.55-.75-.59-1.59-.7-2.48-.08-.64-.49-1.2-1.2-1.2-.59,0-1.28.55-1.2,1.2.16,1.3.22,2.61,1.02,3.7.38.52,1.04.78,1.64.43.51-.3.82-1.12.43-1.64h0Z"/>
    <path class="cls-14" d="m235.36,113.61l-3.06-.6c-.64-.13-1.3.18-1.48.84-.16.59.2,1.35.84,1.48l3.06.6c.64.13,1.3-.18,1.48-.84.16-.59-.2-1.35-.84-1.48h0Z"/>
    <g>
      <g>
        <path class="cls-8" d="m245.35,173.06c13.2-.3,27.62.89,40.67.6,1.05-13.25.47-50.81-1.52-64.27-.83-5.62-3.53-9.25-8.51-11.52-5.03-2.3-10.2-3.45-15.7-2.3-5.28,1.1-8.78,4.27-9.88,9.62-.93,4.52-3.28,9.73-3.94,14.3"/>
        <path class="cls-12" d="m271.71,119.35c1.54,0,1.55-2.4,0-2.4s-1.55,2.4,0,2.4h0Z"/>
        <path class="cls-12" d="m260.23,119.02c1.54,0,1.55-2.4,0-2.4s-1.55,2.4,0,2.4h0Z"/>
        <g>
          <path class="cls-7" d="m277.24,127.99c-.29,2.86-.8,2.35-2.72,4.49-.46.52-1.7.82-2.31,1.16-1.4.76-2.66.74-4.24.55-1.42-.17-2.54.16-3.85-.39-.77-.32-2.05-.38-2.75-.83-1.69-1.06-3.2-1.64-4.61-3.06s-1.44-.44-1.84-2.41c1.39.17,2.39.37,3.64.69,1.86.47,2.19.99,4.07,1.2,2.62.29,1.98.27,4.35.5,1.71.16,2.89-.39,4.58-.72,2.62-.52,4.55-.56,5.68-1.18"/>
          <path class="cls-1" d="m276.08,127.67c-.71,4.96-6.48,5.72-10.55,5.12-2.85-.42-8.67-2.34-9.45-5.6l-1.48,1.48c3.74.54,7.14,1.92,10.92,2.28,3.75.36,8.56-.4,12.03-1.8,1.41-.57.8-2.89-.64-2.31-3.28,1.32-7.92,1.98-11.39,1.72-3.55-.27-6.77-1.68-10.28-2.19-.9-.13-1.71.51-1.48,1.48,1.08,4.5,8.14,7.11,12.24,7.49,5.11.47,11.54-1.08,12.39-7.02.22-1.51-2.1-2.16-2.31-.64h0Z"/>
        </g>
      </g>
      <g>
        <path class="cls-14" d="m288.24,143.26c.15-2.28.3-4.45.43-6.62.57-9.14-.26-18.19-1.65-27.2-.41-2.66-.7-5.36-2.1-7.72-2.01-3.4-5.28-5.23-8.69-6.87-.62-.3-1.9-.79-2.65-1.04-1.95-.62-2.65-.76-4.65-1.08-.91-.15-1.97-.24-2.77-.3-10.15-.81-17.3,4.73-18.75,14.58-1.39,9.48-2.89,18.94-3.33,28.88l-.4,6.84c0,10.31.33,16.91.33,27.22-.1,1.36.9,4.24,3.82,4.73,2.44.39,1.79.36,3.83.32l28,.28c1.39-.03,2.79-.03,4.19-.1,2.39-.12,4.14-1.96,3.89-4.25-.58-5.42-.18-10.82.16-16.23.16-2.6.15-5.21.3-7.82l.04-3.62Zm-2.84,10.5c-.43,5.81-.88,11.62-.32,17.45.04.41-.31,1.14-.63,1.25-.75.26-1.59.31-2.39.31-9.22-.01-18.43-.05-27.65-.09-2.74-.01-6.55.23-7.61-.99-1.44-1.51-.86-11.84-.92-18.26,13.25-1.06,26.34-1.36,39.56-.91-.01.46,0,.85-.04,1.24Zm0-4.17c-13.05.29-26.2.59-39.4.89,0-.14,0-.54,0-.94.19-10.26.82-20.48,2.29-30.64.66-4.57,1.23-9.17,2.16-13.69,1.1-5.35,4.59-8.52,9.88-9.62,5.5-1.15,10.68,0,15.7,2.3,4.97,2.28,7.68,5.91,8.51,11.53,1.99,13.47,1.91,26.94.86,40.19Z"/>
        <path class="cls-12" d="m271.71,119.35c1.54,0,1.55-2.4,0-2.4s-1.55,2.4,0,2.4h0Z"/>
        <path class="cls-12" d="m260.23,119.02c1.54,0,1.55-2.4,0-2.4s-1.55,2.4,0,2.4h0Z"/>
        <path class="cls-1" d="m275.46,111.75c-1.15-.31-2.31-.57-3.48-.8-1.51-.29-2.16,2.03-.64,2.31,1.17.22,2.33.49,3.48.8,1.49.4,2.13-1.92.64-2.31h0Z"/>
        <path class="cls-1" d="m259.44,111.08c-1.19.03-2.31.3-3.48.44-.64.08-1.2.5-1.2,1.2,0,.59.55,1.28,1.2,1.2,1.17-.14,2.29-.42,3.48-.44,1.54-.03,1.55-2.43,0-2.4h0Z"/>
      </g>
      <path class="cls-14" d="m274.79,174.39c1.89,10.16,4.69,20.07,8.4,29.72.55,1.43,2.87.81,2.31-.64-3.71-9.65-6.5-19.55-8.4-29.72-.28-1.52-2.6-.87-2.31.64h0Z"/>
      <path class="cls-14" d="m284.33,205.03c2.31.23,4.62.46,6.93.69,1.54.15,1.52-2.25,0-2.4-2.31-.23-4.62-.46-6.93-.69-1.54-.15-1.52,2.25,0,2.4h0Z"/>
      <path class="cls-14" d="m254.73,173.75c-1,6.24-2.02,12.47-3.03,18.71-.37,2.31-.22,6.56-1.96,7.86s-6.34,1.56-8.47,2.02c-1.51.33-.87,2.64.64,2.31,2.5-.54,7.04-.72,9.25-2.14,1.76-1.13,1.53-1.47,1.95-3.78,1.49-8.08,2.64-16.23,3.94-24.34.24-1.51-2.07-2.16-2.31-.64h0Z"/>
      <path class="cls-14" d="m287.62,144.56c5.96-6.96,10.87-14.59,14.68-22.93.64-1.39-1.43-2.62-2.07-1.21-3.72,8.15-8.47,15.64-14.3,22.45-1,1.17.69,2.87,1.7,1.7h0Z"/>
      <path class="cls-14" d="m245.64,142.47c-3.38-9.31-8.45-17.29-9.52-27.38-.16-1.52-2.56-1.54-2.4,0,1.1,10.44,6.1,18.38,9.6,28.02.52,1.44,2.84.82,2.31-.64h0Z"/>
      <path class="cls-14" d="m301.32,122.27c1.54,0,1.55-2.4,0-2.4s-1.55,2.4,0,2.4h0Z"/>
      <path class="cls-14" d="m235.42,116.13c.77-.57,1.54-1.13,2.32-1.7.52-.38.78-1.04.43-1.64-.3-.51-1.12-.82-1.64-.43-.77.57-1.54,1.13-2.32,1.7-.52.38-.78,1.04-.43,1.64.3.51,1.12.82,1.64.43h0Z"/>
      <path class="cls-14" d="m301.55,122.2c.98-.18,1.95-.28,2.94-.32,1.54-.07,1.55-2.47,0-2.4-1.2.05-2.4.19-3.58.41-.64.12-1,.89-.84,1.48.18.67.84.95,1.48.84h0Z"/>
      <path class="cls-14" d="m302.48,121.47c.47-.97,1-1.94,1.32-2.97.47-1.48-1.85-2.11-2.31-.64-.26.83-.7,1.61-1.08,2.4-.28.58-.16,1.3.43,1.64.52.31,1.36.16,1.64-.43h0Z"/>
      <path class="cls-14" d="m302.18,119.76c-.63-.42-1.17-.9-1.72-1.55-.42-.49-1.26-.43-1.7,0-.49.49-.42,1.2,0,1.7.64.75,1.39,1.38,2.2,1.92.54.36,1.33.11,1.64-.43.34-.59.11-1.28-.43-1.64h0Z"/>
      <g>
        <path class="cls-7" d="m278.14,126.42c-.23,2.87-.47,4.51-2.34,6.68-.45.53-2.12,1.72-2.72,2.06-1.38.79-2.85,1.12-4.43.96-1.42-.14-3.82-.02-5.15-.55-.78-.31-2.92-1.3-3.63-1.73-1.71-1.03-1.16-1.16-2.72-2.97-1.3-1.51-2.33-3.35-2.77-5.31,1.22.43,4.78,1.86,5.91,2.5,1.45.83,3.08,1.3,4.71,1.65,2.36.52,2.24.29,4.62-.1,1.7-.27,3.31-.92,4.87-1.64,1.16-.54,2.31-1.14,3.42-1.78"/>
        <path class="cls-1" d="m276.94,126.42c-.57,6.16-4.73,9.14-10.91,8.38-5.28-.65-9-4.53-10.51-9.55l-1.48,1.48c3.9,1.43,7.92,4.18,12.15,4.43s8.59-1.85,12.3-3.91c1.35-.75.14-2.82-1.21-2.07-4.87,2.71-9.55,4.58-15.01,2.43-2.56-1.01-5.01-2.24-7.59-3.18-.87-.32-1.72.65-1.48,1.48,2.06,6.86,7.11,11.04,14.21,11.37s11.28-3.98,11.91-10.84c.14-1.54-2.26-1.53-2.4,0h0Z"/>
      </g>
    </g>
  </g>
  <g>
    <g>
      <g>
        <path class="cls-6" d="m135.29,107.85c-.02-.76-.03-1.53-.04-2.28s-.02-1.51-.03-2.27-.03-1.5-.06-2.25-.08-1.49-.14-2.24c-.2-2.33-.41-4.66-.62-6.98s-.43-4.65-.65-6.98c-.22-2.33-.45-4.65-.68-6.98-.23-2.33-.47-4.65-.72-6.97-.07-.7-.19-1.4-.36-2.08s-.38-1.34-.65-1.99-.59-1.27-.96-1.86-.8-1.17-1.29-1.71c-.66-.74-1.37-1.36-2.13-1.88s-1.56-.94-2.39-1.28-1.71-.59-2.61-.77-1.83-.29-2.77-.35c-1.42-.09-2.8-.05-4.16.09s-2.69.39-4,.74-2.59.8-3.85,1.34-2.5,1.17-3.72,1.88c-.81.47-1.51,1-2.11,1.59s-1.11,1.24-1.54,1.94-.78,1.46-1.06,2.27-.5,1.67-.66,2.58c-.37,2.03-.72,4.06-1.04,6.09s-.62,4.07-.87,6.11c-.25,2.04-.46,4.08-.61,6.13s-.24,4.11-.26,6.17c-.01,1.42,0,2.85,0,4.27s.04,2.85.07,4.28.07,2.87.1,4.31.07,2.89.09,4.34c3.3,0,6.59.03,9.89.1,3.3.07,6.59.18,9.9.33s6.6.35,9.91.61c3.31.25,6.62.56,9.94.92l.02-1.14.02-1.1.02-1.07.02-1.06v-2.84Z"/>
        <g>
          <path class="cls-6" d="m95.6,115.5c.07,4.47.18,8.63.18,12.79,0,1.84-.19,3.68-.38,5.52-.16,1.53.3,2.14,1.85,2.18,1.64.04,3.29.07,4.93.1,10.47.21,20.95.42,31.42.64.23,0,.47,0,1.05.02.05-2.38.07-4.69.15-7,.12-3.73.25-7.46.41-11.18.03-.78-.21-1.05-.99-1.1-10.2-.59-20.4-1.22-30.6-1.8-2.63-.15-5.28-.12-8.02-.18Z"/>
          <path class="cls-14" d="m127.92,139.11c2.62.18,4.07.15,6.42.17,1.7.01,2.8-1.37,2.88-2.65.16-2.56.04-3.72.12-6.29.19-6.86.45-13.73.48-20.59.04-10.44-.48-20.86-1.89-31.21-.43-3.18-.66-6.39-1.31-9.52-1.47-7.15-6.59-11.39-15.27-12.62l-2.53-.05c-1.44.16-3.63.39-4.82.62-3.95.77-7.54,2.35-10.88,4.6-3.25,2.19-4.78,5.28-5.48,9.07-1.77,9.53-3.07,19.09-2.84,28.82.01.52.04,1.04.06,1.56.02.51.05,1.02.09,1.76l.08,4.16c.04,7.95.06,15.89.04,23.84,0,1.16-.25,2.31-.33,3.47-.15,2.33,1.33,4.1,3.7,4.27,2.2.16,4.41.16,6.62.23l24.86.38Zm7.38-28.42l-.04,2.14-.05,2.24c-6.64-.73-13.25-1.22-19.85-1.53-6.6-.31-13.19-.43-19.78-.44-.05-2.91-.13-5.78-.19-8.65-.06-2.86-.1-5.71-.08-8.55.04-4.13.36-8.22.86-12.3.5-4.08,1.17-8.14,1.9-12.2.33-1.82.86-3.44,1.72-4.85.86-1.41,2.04-2.59,3.66-3.54,2.43-1.42,4.95-2.51,7.57-3.21,2.62-.7,5.33-1,8.17-.83,1.89.12,3.71.45,5.38,1.12,1.67.67,3.2,1.68,4.52,3.16.97,1.09,1.71,2.29,2.25,3.58.54,1.29.86,2.65,1.01,4.06.49,4.65.95,9.3,1.4,13.95.44,4.65.86,9.31,1.27,13.96.13,1.49.18,2.98.2,4.49s.03,3.02.07,4.55m-33.11,28.24c-1.64-.03-3.29-.06-4.93-.1-1.56-.04-2.01-.65-1.85-2.18.19-1.83.38-3.68.38-5.52,0-4.16-.11-8.32-.18-12.79,2.74.06,5.39.03,8.02.18,10.2.57,20.4,1.21,30.6,1.8.78.04,1.02.32.99,1.1-.17,3.73-.3,7.45-.41,11.18-.07,2.31-.13,3.71-.18,6.09.05.71-.78.89-1.02.89-10.47-.21-20.95-.42-31.42-.64Z"/>
          <path class="cls-15" d="m116.3,56.32l3.37.07-3.37-.07Z"/>
        </g>
        <path class="cls-13" d="m105.14,75.95c.9.11,1.73.19,2.55.34.79.14,1.17.66,1.04,1.47-.14.83-.7,1.09-1.48,1.03-1.11-.09-2.22-.22-3.33-.27-.91-.04-1.6-.32-1.6-1.35,0-1,.74-1.22,1.57-1.24.44,0,.88.01,1.25.02Z"/>
        <path class="cls-3" d="m122.16,79.89c-.6-.01-1.2-.03-1.8-.03-.84,0-1.29-.49-1.28-1.26,0-.78.52-1.23,1.32-1.23,1.24,0,2.47.02,3.71.08.81.04,1.22.55,1.2,1.34-.02.77-.49,1.14-1.25,1.14-.64,0-1.28-.02-1.91-.03Z"/>
        <path class="cls-9" d="m107.21,84.01c1.93,0,1.93-3,0-3s-1.93,3,0,3h0Z"/>
        <path class="cls-9" d="m120.76,85.77c1.93,0,1.93-3,0-3s-1.93,3,0,3h0Z"/>
      </g>
      <path class="cls-14" d="m102.59,94.8c8.32,2.31,16.94,2.99,25.39.99,1.5-.36.87-2.67-.64-2.31-8.04,1.91-16.21,1.21-24.11-.99-1.49-.41-2.13,1.9-.64,2.31h0Z"/>
      <path class="cls-14" d="m102.41,138.05c-1.28,9.23-2.9,18.39-4.88,27.49-.33,1.51,1.99,2.15,2.31.64,1.97-9.1,3.6-18.26,4.88-27.49.21-1.51-2.1-2.16-2.31-.64h0Z"/>
      <path class="cls-14" d="m123.17,139.06c2.08,9.19,4.49,18.18,6.87,27.27.39,1.49,2.71.86,2.31-.64-2.38-9.09-4.79-18.09-6.87-27.27-.34-1.51-2.66-.87-2.31.64h0Z"/>
      <path class="cls-14" d="m131.13,167.22c2.16.43,4.35.72,6.53,1.04,1.51.22,2.16-2.09.64-2.31-2.18-.32-4.37-.61-6.53-1.04-1.51-.3-2.15,2.01-.64,2.31h0Z"/>
      <path class="cls-14" d="m98.32,164.9c-2.29.86-4.78,1.17-7,2.21-1.4.66-.18,2.73,1.21,2.07,2-.94,4.34-1.19,6.42-1.97,1.43-.54.81-2.86-.64-2.31h0Z"/>
    </g>
    <path class="cls-14" d="m135.71,102.3c3.26,5.9,3.01,12.59,3.57,19.13.43,4.98.98,10.1.72,15.09-.08,1.54,2.32,1.54,2.4,0,.29-5.76-.42-11.63-.92-17.36-.56-6.39-.52-12.32-3.7-18.07-.75-1.35-2.82-.14-2.07,1.21h0Z"/>
    <path class="cls-14" d="m92.96,99.41c-2.25,5.9-2.97,11.25-3.4,17.48-.54,7.73-1.84,15.69-1.41,23.42.09,1.54,2.49,1.55,2.4,0-.41-7.42.82-15.02,1.34-22.43.44-6.31,1.11-11.85,3.39-17.82.55-1.44-1.77-2.07-2.31-.64h0Z"/>
    <path class="cls-14" d="m87.87,141.2c-.57.58-1.16,1.2-1.51,1.95-.27.57-.18,1.32.43,1.64.53.28,1.36.18,1.64-.43.07-.15.15-.3.24-.45.04-.06.08-.13.13-.19.12-.17-.18.2.06-.07s.46-.51.7-.75c.44-.45.48-1.26,0-1.7s-1.23-.48-1.7,0h0Z"/>
    <path class="cls-14" d="m88.5,142.38c.17.2.2.75.27,1,.13.47.26.93.38,1.4.41,1.49,2.72.86,2.31-.64-.32-1.15-.48-2.53-1.27-3.46-.42-.49-1.26-.43-1.7,0-.49.49-.42,1.2,0,1.7h0Z"/>
    <path class="cls-14" d="m88.96,141.46c1.3.4,2.48.98,3.61,1.74,1.28.86,2.49-1.21,1.21-2.07s-2.7-1.53-4.19-1.99-2.11,1.86-.64,2.31h0Z"/>
    <path class="cls-14" d="m139.84,137.22c-.59.88-1.13,1.84-1.89,2.6-1.09,1.09.6,2.79,1.7,1.7.9-.9,1.56-2.03,2.26-3.08.36-.54.1-1.33-.43-1.64-.59-.34-1.28-.11-1.64.43h0Z"/>
    <path class="cls-14" d="m139.8,137.96c.2.65.41,1.29.64,1.92.19.53.35,1.14.7,1.6.39.51,1.03.79,1.64.43.51-.3.83-1.12.43-1.64-.28-.36-.4-.83-.55-1.26-.2-.56-.38-1.12-.55-1.68-.45-1.47-2.77-.84-2.31.64h0Z"/>
    <path class="cls-14" d="m140.66,138.4l5.13,1.21c1.5.36,2.14-1.96.64-2.31l-5.13-1.21c-1.5-.36-2.14,1.96-.64,2.31h0Z"/>
  </g>
</svg>